<svg id="Capa_1" data-name="Capa 1" xmlns="http://www.w3.org/2000/svg" viewBox="0 0 2389.75 708.2"><defs><style>.cls-1{fill:#eb9d33;}.cls-2{fill:#ffd980;}</style></defs><title>actopan_nube09</title><path class="cls-1" d="M2364.45,713.49a57.06,57.06,0,0,1-27.88-7.31A44.66,44.66,0,0,1,2321.25,692h-.08l-1.08-1.8a45.34,45.34,0,0,1-2.47-42.23l-4.5-2.53a50,50,0,0,0-.48,41.44l2.24,5.15-975.06,5.3a87.17,87.17,0,0,1-72.37-38.69c-16-23.79-18.94-52.35-8.08-78.35.69-1.65,1.42-3.29,2.22-4.92a72.67,72.67,0,0,1,97.35-33.53,57.72,57.72,0,0,1,28.12,73.8l4.63,2.26a62.86,62.86,0,0,0-30.49-80.69A78,78,0,0,0,1257,573.11q-1.24,2.57-2.34,5.18a86.83,86.83,0,0,0-6,45.82l.6,4.24H818.08l2.76-5.4a57.36,57.36,0,0,0,1.84-48.85c-.49-1.17-1-2.31-1.57-3.46a52.39,52.39,0,0,0-46.83-29.19,51.51,51.51,0,0,0-22.71,5.25,42.15,42.15,0,0,0-20.88,52.92l4.65-2.27a37,37,0,0,1,18.49-46,46.41,46.41,0,0,1,20.47-4.74,47.2,47.2,0,0,1,42.19,26.33c.51,1,1,2.11,1.44,3.19,7,16.75,5.1,35.17-5.22,50.53a56.31,56.31,0,0,1-46.75,25l-636.68-3.45.24-3.92a35.05,35.05,0,0,0-5.73-21.47l-4,3.28a29.89,29.89,0,0,1,4.56,18.66l-.29,3.4h-.26a26.19,26.19,0,0,1-1,4,38.43,38.43,0,0,1-36.25,25.73,38,38,0,0,1-12.61-2.15A48.64,48.64,0,0,1,44,613.83c10.1-29,41.85-59.94,100.64-59.94,1.54,0,7.35.14,7.35.14l.78,2.55a85,85,0,0,0,17.34,31.23,69.49,69.49,0,0,0,97.93,6.75,56.12,56.12,0,0,0,7.8-76.19L272,521.76a51,51,0,0,1-7.29,68.93A64.34,64.34,0,0,1,174,584.43a81.06,81.06,0,0,1,7.87-114.24c19.93-17.36,50.12-27.32,82.81-27.32,35.87,0,68.54,11.79,92.47,33.26l3.56-3.71c-17-15.24-38.69-25.95-63.08-31.08l-3.24-.68.31-3.31c2.43-25.44,22-58.65,49.88-84.62,19.87-18.49,61.58-49.51,117.83-49.51,2.42,0,4.89.06,7.37.18a76,76,0,0,1,26.38,6.08,74,74,0,0,1,11.73,6.32,71.26,71.26,0,0,1,32.3,61.33A57.14,57.14,0,0,1,483,432.92h-1.24a45.28,45.28,0,0,1-44.07-42.53l-5.15-.12A50.32,50.32,0,0,0,481.63,438l1.5,0a62.28,62.28,0,0,0,62.22-60.81,76.1,76.1,0,0,0-36.71-67.18l-2.82-1.73,1.4-3c23-49.19,100.34-120.65,169.28-120.65,1.68,0,3.36,0,5,.13a150.61,150.61,0,0,1,51.56,11.83,122.3,122.3,0,0,1,11.63,5.79c27.29,15.45,43.59,39.25,47.12,68.81a78.57,78.57,0,0,1-68.71,87.33,62.25,62.25,0,0,1-68.75-50.85l-5.11.62a67.44,67.44,0,0,0,74.46,55.34,83.81,83.81,0,0,0,73.22-93c-3.72-31.18-21.71-57.28-50.66-73.48l-3-1.68,1.45-3.13C795.54,83.33,881.84,40.64,945.28,24a349.27,349.27,0,0,1,88.5-11.31c70.64,0,139.42,21.39,179.51,55.82,41.56,35.7,63.83,73.64,66.19,112.77.2,3.31.25,6.53.17,9.66a111.31,111.31,0,0,1-12.53,48.54A100.5,100.5,0,0,1,1131.31,282a80.27,80.27,0,0,1-42.9-71.32l-5.15-.26a85.42,85.42,0,0,0,45.66,76.13,105.77,105.77,0,0,0,142.76-44.63,112.67,112.67,0,0,0,13.16-54.51l0-1.87,1.48-1.13c31.1-23.86,91.53-39.88,150.38-39.88,53.58,0,99.09,13,128.14,36.66,40.78,33.18,76.84,89.87,55.76,149.46a117.28,117.28,0,0,1-8.38,18.37c-.77,1.39-1.6,2.76-2.44,4.11a98,98,0,0,1-130.93,33.3,77.85,77.85,0,0,1-31.47-102.71l-4.49-2.52a83,83,0,0,0,33.45,109.73,103.15,103.15,0,0,0,140.37-39.38,122.43,122.43,0,0,0,7-14.65l.53-1.35,1.29-.63c31.78-15.42,78-25,120.59-25,28.21,0,68.28,4.26,99,24.62,42.51,28.16,60.33,59.39,67.8,80.63,5.87,16.65,7.56,34.22,4.76,49.46a64.84,64.84,0,0,1-7,20.09,57,57,0,0,1-77.8,21.82,45.19,45.19,0,0,1-19-58.21l-4.49-2.54A50.31,50.31,0,0,0,1830.26,511a62.26,62.26,0,0,0,84.79-23.79,70.53,70.53,0,0,0,6.67-16.72l.36-1.4,1.21-.78c12.93-8.38,29.88-15.07,49-19.36a206.42,206.42,0,0,1,45.14-5c28.61,0,54.08,6.43,69.87,17.65,21.7,15.42,35,37.61,36.37,60.88a66.79,66.79,0,0,1-3.2,25,69.63,69.63,0,0,1-5.43,12.34,57.17,57.17,0,0,1-77.79,21.82,45.22,45.22,0,0,1-19-58.23l-4.5-2.52a50.35,50.35,0,0,0,20.93,65.23,62.29,62.29,0,0,0,84.81-23.79,71.37,71.37,0,0,0,9.25-34.28l0-1.63,1.23-1.09A89.74,89.74,0,0,1,2165.69,506a90.17,90.17,0,0,1,68.93,8.26,72.13,72.13,0,0,1,27.52,98.11,57.08,57.08,0,0,1-77.79,21.82,45.28,45.28,0,0,1-18.95-58.23l-4.49-2.52a50.41,50.41,0,0,0,20.92,65.24,62,62,0,0,0,47.33,5.66,61.52,61.52,0,0,0,34-23.95l2-2.76.13.07a90.77,90.77,0,0,1,121.62-31.42,72.08,72.08,0,0,1,27.52,98.12,57.29,57.29,0,0,1-49.91,29.13Z" transform="translate(-37.59 -9)"/><path class="cls-2" d="M1033.79,16.42c74.59,0,140.77,23.73,177.09,54.92,47.84,41.1,63,79.62,64.9,110.18q.29,4.81.16,9.34a107.74,107.74,0,0,1-12.1,46.92,96.28,96.28,0,0,1-56.94,47.54,96.37,96.37,0,0,1-73.88-6.64,76.55,76.55,0,0,1-40.8-71.55l-12.55-.64a89.14,89.14,0,0,0,47.53,83.32,108.92,108.92,0,0,0,50.63,12.54h0A109.8,109.8,0,0,0,1275,243.61a116.37,116.37,0,0,0,13.58-56.29c30.22-23.18,89.41-39.12,148.11-39.11,47.45,0,94.58,10.41,125.82,35.83,39.64,32.26,74.91,87.93,54.6,145.34a114.1,114.1,0,0,1-8.12,17.8c-.75,1.34-1.54,2.66-2.35,3.95a94.29,94.29,0,0,1-126,32.05,74.16,74.16,0,0,1-28.32-100.95l-11-6.15a86.7,86.7,0,0,0,33.12,118.05,106.85,106.85,0,0,0,145.42-40.8,125,125,0,0,0,7.18-15.1c28.84-14,74.25-24.63,119-24.63,35.7,0,71,6.78,97,24,41.65,27.59,59.07,58.06,66.36,78.77,5.76,16.4,7.26,33.09,4.6,47.57a61.31,61.31,0,0,1-6.64,18.94,54.44,54.44,0,0,1-32.14,25.27,53.84,53.84,0,0,1-14.51,2,53.06,53.06,0,0,1-26.09-6.87,41.48,41.48,0,0,1-15.85-56.48l-11-6.15a54,54,0,0,0,20.65,73.59,65.6,65.6,0,0,0,32.22,8.49,66.33,66.33,0,0,0,17.92-2.49,65.52,65.52,0,0,0,39.7-31.21,73.46,73.46,0,0,0,7-17.61c12.37-8,28.81-14.59,47.8-18.85a204.52,204.52,0,0,1,44.33-4.95c27.39,0,52.14,5.89,67.72,17,21.4,15.2,33.52,36.5,34.82,58.09a63,63,0,0,1-3,23.65,65.69,65.69,0,0,1-5.14,11.68,53.47,53.47,0,0,1-72.74,20.41,41.5,41.5,0,0,1-15.85-56.49l-11-6.15a54,54,0,0,0,20.65,73.59,65.59,65.59,0,0,0,32.22,8.48,66.32,66.32,0,0,0,17.92-2.48,65.52,65.52,0,0,0,39.7-31.21,75.54,75.54,0,0,0,9.74-36,86.87,86.87,0,0,1,100.3-10.67,68.42,68.42,0,0,1,26.1,93.06,53.09,53.09,0,0,1-32.14,25.27,53.86,53.86,0,0,1-14.51,2,53.17,53.17,0,0,1-26.09-6.87,41.54,41.54,0,0,1-15.85-56.49l-11-6.15A54.11,54.11,0,0,0,2180,641.87a65.6,65.6,0,0,0,32.22,8.49,66.33,66.33,0,0,0,17.92-2.49,65.43,65.43,0,0,0,36-25.38l.38.22A87.06,87.06,0,0,1,2385,589.47a68.38,68.38,0,0,1,26.11,93.07A53.48,53.48,0,0,1,2338.38,703a41.1,41.1,0,0,1-14.13-13.15v-1.54h-1a41.5,41.5,0,0,1-.72-41.81l-11-6.15a53.94,53.94,0,0,0-2.35,48l-968.65,5.27h-.76a83.37,83.37,0,0,1-69.29-37.05c-15.29-22.74-18.11-50-7.74-74.86.66-1.58,1.38-3.16,2.13-4.71a69,69,0,0,1,92.4-31.83,54,54,0,0,1,24.89,72.23l11.29,5.51a66.6,66.6,0,0,0-30.68-89,81.67,81.67,0,0,0-109.19,37.63q-1.31,2.67-2.43,5.37a90.23,90.23,0,0,0-6.23,47.78H824.14a61.15,61.15,0,0,0,2-52c-.52-1.22-1.06-2.43-1.65-3.64A55.74,55.74,0,0,0,750,543.37a45.82,45.82,0,0,0-21.11,61.28l11.29-5.51a33.27,33.27,0,0,1,15.32-44.48,43.18,43.18,0,0,1,57.71,19.88c.48,1,.93,2,1.34,3,6.52,15.6,4.74,32.75-4.87,47.05A52.54,52.54,0,0,1,766,647.91h-.48l-632.25-3.44a38.76,38.76,0,0,0-8.78-27l-9.71,8a26.35,26.35,0,0,1,5.92,19h-.26v1.83a27.69,27.69,0,0,1-1.12,4.68,34.67,34.67,0,0,1-44.14,21.31,45,45,0,0,1-27.6-57.17c9.83-28.17,40.55-57.46,97.16-57.46,1.5,0,3,0,4.56.07a89.22,89.22,0,0,0,18.09,32.58,72.94,72.94,0,0,0,55.18,25.06h0a72.81,72.81,0,0,0,48-17.95,59.82,59.82,0,0,0,5.81-84.3l-9.48,8.25a47.25,47.25,0,0,1-4.59,66.58A60.64,60.64,0,0,1,176.81,582a77.36,77.36,0,0,1,7.52-109c19.33-16.83,49.17-26.4,80.37-26.4,33,0,67.45,10.68,92.63,34.76l8.68-9.08c-18-17.21-41.38-29-67.6-34.55,2.33-24.37,21.43-56.84,48.72-82.26C367,337,407.65,306.93,462.43,306.93q3.56,0,7.19.18a72.42,72.42,0,0,1,25.1,5.78,69.69,69.69,0,0,1,11.14,6A67.54,67.54,0,0,1,536.5,377,53.42,53.42,0,0,1,483,429.21h-1.17a41.53,41.53,0,0,1-40.5-42.45l-12.56-.29a54,54,0,0,0,52.76,55.29l1.59,0a66,66,0,0,0,65.93-64.44,80.15,80.15,0,0,0-38.48-70.43c23.86-51.1,100.5-118.52,165.93-118.51,1.61,0,3.22,0,4.81.12a147.76,147.76,0,0,1,50.28,11.53,119.58,119.58,0,0,1,11.28,5.61c23.18,13.13,41.49,34.38,45.27,66a74.89,74.89,0,0,1-65.47,83.21,59.5,59.5,0,0,1-7,.42,58.71,58.71,0,0,1-58.16-51.7L645,305.11a71.31,71.31,0,0,0,70.65,62.77,73.9,73.9,0,0,0,8.49-.5,87.53,87.53,0,0,0,76.45-97.18c-3.94-33.09-23.1-59.8-52.53-76.28C797.84,87.19,881.84,44.47,946.22,27.6a346.38,346.38,0,0,1,87.57-11.18m0-7.42V9a353.07,353.07,0,0,0-89.45,11.43c-64.21,16.82-151.55,60-203,170.36l-2.14,4.6c-1.54-.74-3.1-1.46-4.67-2.14a154.46,154.46,0,0,0-52.85-12.14c-1.73-.09-3.46-.13-5.2-.13-31.44,0-68,14.78-103.07,41.62-30.89,23.69-56.91,54-69.58,81.18l-2,4.25c-1.4-.7-2.82-1.36-4.24-2A80,80,0,0,0,470,299.7c-2.53-.12-5.06-.18-7.54-.18-57.51,0-100.09,31.64-120.35,50.5-28.51,26.54-48.54,60.68-51.05,87l-.41,4.24a161,161,0,0,0-25.92-2.07c-33.58,0-64.65,10.28-85.24,28.22a84.77,84.77,0,0,0-26.88,83l-3.13-.09c-1.61,0-3.2-.06-4.76-.06-60.74,0-93.64,32.24-104.16,62.42a52.36,52.36,0,0,0,32.16,66.62,42.06,42.06,0,0,0,53.58-25.87q.26-.74.48-1.5l6.44,0,632.25,3.44H766a60,60,0,0,0,47.4-23.27h438.25a89.5,89.5,0,0,0,12.76,28.64A90.87,90.87,0,0,0,1339.82,701h.85l968.6-5.26,10.05,0a48.14,48.14,0,0,0,15.43,13.7,60.86,60.86,0,0,0,82.84-23.24A75.75,75.75,0,0,0,2388.65,583a94.47,94.47,0,0,0-118.93,22A75.86,75.86,0,0,0,2236.44,511a94,94,0,0,0-71.75-8.6,93.43,93.43,0,0,0-37.1,20.19l-.18.16,0-.5c-1.47-24.4-15.3-47.61-37.93-63.69-16.64-11.82-42.21-18.33-72-18.33a210.29,210.29,0,0,0-46,5.14c-19.54,4.37-36.9,11.24-50.2,19.85,2.89-15.83,1.15-34-4.92-51.28-7.65-21.78-25.89-53.76-69.25-82.49-31.5-20.86-72.34-25.24-101.07-25.24-43,0-89.57,9.64-121.8,25.18,9.67-27.75,7.88-57.86-5.21-87.12-10.76-24.08-29.19-47.5-51.87-66-29.71-24.18-76.06-37.5-130.5-37.5-59.59,0-120.93,16.33-152.62,40.65l-.8.61-.06-1c-2.42-40.18-25.13-79-67.47-115.36C1175,30.74,1105.27,9,1033.79,9Z" transform="translate(-37.59 -9)"/></svg>