<svg id="Capa_1" data-name="Capa 1" xmlns="http://www.w3.org/2000/svg" viewBox="0 0 295.02 295.02"><defs><style>.cls-1{opacity:0.55;}.cls-2{fill:#fff;}.cls-3{fill:#9c2363;}</style></defs><title>actopan_menu</title><g class="cls-1"><path class="cls-2" d="M206.61,246.41a9.68,9.68,0,1,1-19.36,0,33,33,0,0,1,33-33h76.89V41.12A39.69,39.69,0,0,0,257.47,1.43H41.82A39.68,39.68,0,0,0,2.14,41.12V213.41H79a33,33,0,0,1,33,33,9.68,9.68,0,0,1-19.36,0A13.67,13.67,0,0,0,79,232.77H2.14v24a39.68,39.68,0,0,0,39.68,39.69H257.47a39.69,39.69,0,0,0,39.68-39.69v-24H220.26A13.66,13.66,0,0,0,206.61,246.41Z" transform="translate(-2.14 -1.43)"/></g><path class="cls-3" d="M127.12,181.43c-11.78,0-27.85-1.06-38-8.55A8.31,8.31,0,0,1,99,159.51c4.92,3.62,15,5.34,29.72,5.29H236.45a8.31,8.31,0,0,1,0,16.62H127.12Z" transform="translate(-2.14 -1.43)"/><path class="cls-3" d="M127.12,127.8c-11.78,0-27.85-1-38-8.54A8.31,8.31,0,0,1,99,105.88c4.92,3.63,15,5.35,29.72,5.29H236.45a8.31,8.31,0,0,1,0,16.62H127.12Z" transform="translate(-2.14 -1.43)"/><path class="cls-3" d="M127.12,73c-11.78,0-27.85-1.06-38-8.55A8.31,8.31,0,0,1,99,51.1c4.92,3.62,15,5.34,29.72,5.29H236.45a8.31,8.31,0,0,1,0,16.62H127.12Z" transform="translate(-2.14 -1.43)"/><path class="cls-3" d="M67.76,53.8a8.62,8.62,0,0,1-3.22-1.53l-4.92-4.34A8.2,8.2,0,0,1,56.5,42.4,8.35,8.35,0,0,1,70,34.94l4.94,4.26a8.33,8.33,0,0,1-7.16,14.6Z" transform="translate(-2.14 -1.43)"/><path class="cls-3" d="M67.76,107a8.49,8.49,0,0,1-3.22-1.54l-4.92-4.34a8.16,8.16,0,0,1-3.12-5.53A8.36,8.36,0,0,1,70,88.17l4.94,4.26A8.34,8.34,0,0,1,67.76,107Z" transform="translate(-2.14 -1.43)"/><path class="cls-3" d="M67.76,158.83a8.62,8.62,0,0,1-3.22-1.53L59.62,153a8.2,8.2,0,0,1-3.12-5.53A8.35,8.35,0,0,1,70,140l4.94,4.26a8.33,8.33,0,0,1-7.16,14.6Z" transform="translate(-2.14 -1.43)"/></svg>