<svg id="Capa_1" data-name="Capa 1" xmlns="http://www.w3.org/2000/svg" viewBox="0 0 1288.11 385.6"><defs><style>.cls-1{fill:#f1836e;}</style></defs><title>actopan_nuberosa_contorno</title><path class="cls-1" d="M4172.64,1423.41a53.54,53.54,0,0,0-60,5.21,43.5,43.5,0,0,0-21.73-43.87,53.51,53.51,0,0,0-57.8,3.5c-2.14-11.91-9.34-23.32-20.84-31.48-14.44-10.26-40.16-13.22-65.52-7.53a93.47,93.47,0,0,0-22.81,8.08c1.39-21.44-10.94-48.38-41.81-68.83-31.8-21.07-85.66-15.36-116.91-2.53,6.58-27.17-5.34-56.89-33.12-79.5-18.88-15.36-50.1-22.7-85.69-20.12-26.39,1.9-50.87,9.19-66.2,19.29-2.81-20.43-15.3-41.17-36.68-59.54-15.35-13.18-38.14-23.09-64.17-27.88a194.61,194.61,0,0,0-84,3c-36,9.42-82.9,33.26-110.67,92.78a84.7,84.7,0,0,0-29.44-6.63c-38.61-2-83.42,36.75-97.92,67.22a45.61,45.61,0,0,0-15.73-3.57c-33.86-1.62-58.78,16.69-70.66,27.74-15.83,14.74-26.62,33.2-28.23,48a87.28,87.28,0,0,0-9.22-.74c-19.52-.53-37.67,5.18-49.76,15.72a48.19,48.19,0,0,0-16,43.75c-34.55-.29-53.31,17.87-59.41,35.36a30.87,30.87,0,0,0,19,39.27,25.3,25.3,0,0,0,31.86-14.52l340.83,1.85h.32a34.84,34.84,0,0,0,26.73-12.49h231.79a51.74,51.74,0,0,0,49.45,37h.47l523.9-2.84a29,29,0,0,0,8.27,7,35.45,35.45,0,0,0,48.23-13.53,43.43,43.43,0,0,0-16.59-59.13Zm10.71,55.83a28.7,28.7,0,0,1-39,11,22,22,0,0,1-7.59-7v-.83h-.53a22.27,22.27,0,0,1-.39-22.43l-5.88-3.3a29,29,0,0,0-1.26,25.78l-519.88,2.82h-.41a44.74,44.74,0,0,1-37.19-19.89,41.92,41.92,0,0,1-4.15-40.17c.35-.85.74-1.7,1.14-2.53a37.09,37.09,0,0,1,49.59-17.08,29,29,0,0,1,13.36,38.76l6.06,3a35.74,35.74,0,0,0-16.46-47.79,43.83,43.83,0,0,0-58.61,20.2c-.47.95-.9,1.91-1.31,2.88a48.54,48.54,0,0,0-3.34,25.64H3331.6a32.77,32.77,0,0,0,1.05-27.89c-.27-.65-.57-1.3-.88-2a30,30,0,0,0-40-13.78,24.6,24.6,0,0,0-11.33,32.9l6.06-3a17.85,17.85,0,0,1,8.23-23.87,23.19,23.19,0,0,1,31,10.66c.26.53.5,1.07.72,1.61a26.36,26.36,0,0,1-2.62,25.25,28.17,28.17,0,0,1-23.44,12.53h-.25l-339.34-1.84a20.76,20.76,0,0,0-4.71-14.51l-5.21,4.28a14.14,14.14,0,0,1,3.18,10.19h-.14v1a14.08,14.08,0,0,1-.6,2.51,18.63,18.63,0,0,1-23.69,11.44,24.13,24.13,0,0,1-14.81-30.69c5.41-15.52,22.64-31.67,54.59-30.8a48,48,0,0,0,9.71,17.49,39.3,39.3,0,0,0,55.37,3.82,32.11,32.11,0,0,0,3.12-45.25l-5.08,4.43a25.36,25.36,0,0,1-2.47,35.73,32.54,32.54,0,0,1-45.85-3.16,41.52,41.52,0,0,1,4-58.51c21.33-18.58,66.54-20.67,92.85,4.48l4.66-4.87c-9.66-9.24-22.21-15.58-36.28-18.54,1.25-13.08,11.5-30.51,26.15-44.15,11.1-10.33,34.39-27.45,65.74-26a39.15,39.15,0,0,1,13.47,3.1,37.77,37.77,0,0,1,6,3.23,36.2,36.2,0,0,1,16.44,31.21,28.67,28.67,0,0,1-29.34,28,22.29,22.29,0,0,1-21.73-22.78l-6.74-.16a29,29,0,0,0,28.32,29.68h.85a35.42,35.42,0,0,0,35.38-34.59,43,43,0,0,0-20.65-37.79c13.12-28.1,56-65.4,91.64-63.54a79.14,79.14,0,0,1,27,6.19,63.07,63.07,0,0,1,6,3c12.44,7,22.26,18.45,24.29,35.43a40.18,40.18,0,0,1-35.14,44.66,31.49,31.49,0,0,1-35-27.52l-6.7.8a38.28,38.28,0,0,0,37.92,33.69,38.83,38.83,0,0,0,4.55-.27,47,47,0,0,0,41-52.16c-2.12-17.75-12.4-32.09-28.19-40.93,26.7-57.29,71.78-80.22,106.33-89.27,57.71-15.11,115.14.37,142,23.48,25.68,22,33.85,42.73,34.84,59.13q.15,2.58.09,5a57.85,57.85,0,0,1-6.5,25.18,52,52,0,0,1-70.21,22,41.09,41.09,0,0,1-21.9-38.4l-6.73-.35a47.83,47.83,0,0,0,25.5,44.72,58.47,58.47,0,0,0,27.19,6.73,59.18,59.18,0,0,0,17.6-2.7,58.38,58.38,0,0,0,34.52-28.83,62.43,62.43,0,0,0,7.29-30.21c29.33-22.49,109.52-32.28,147-1.76,21.28,17.31,40.21,47.19,29.31,78a61.7,61.7,0,0,1-4.36,9.55c-.41.72-.83,1.43-1.26,2.12a50.65,50.65,0,0,1-67.61,17.2,39.79,39.79,0,0,1-15.2-54.18l-5.88-3.3a46.54,46.54,0,0,0,17.78,63.36,57.34,57.34,0,0,0,78-21.9,67.11,67.11,0,0,0,3.85-8.1c27.84-13.52,84.43-21.17,115.89-.33,22.35,14.8,31.7,31.16,35.61,42.27a50.47,50.47,0,0,1,2.47,25.53,33,33,0,0,1-3.56,10.17,29.62,29.62,0,0,1-2.56,3.76,28.6,28.6,0,0,1-36.48,7.19,22.28,22.28,0,0,1-8.51-30.32l-5.88-3.3a29,29,0,0,0,11.08,39.5,35.43,35.43,0,0,0,48.23-13.53,40,40,0,0,0,3.76-9.45c6.64-4.3,15.46-7.83,25.66-10.12,23.22-5.21,47.39-2.62,60.14,6.44,11.48,8.17,18,19.59,18.68,31.18a34,34,0,0,1-1.61,12.7,34.9,34.9,0,0,1-2.76,6.26,28.71,28.71,0,0,1-39,11,22.28,22.28,0,0,1-8.51-30.32l-5.87-3.3a29,29,0,0,0,11.08,39.49,35.17,35.17,0,0,0,17.29,4.56,35.66,35.66,0,0,0,9.62-1.33,35.24,35.24,0,0,0,21.31-16.75,40.55,40.55,0,0,0,5.22-19.35,46.76,46.76,0,0,1,53.83-5.73,36.72,36.72,0,0,1,14,49.95,28.67,28.67,0,0,1-39,11,22.29,22.29,0,0,1-8.5-30.31l-5.88-3.3a29,29,0,0,0,11.08,39.49,35.39,35.39,0,0,0,46.24-10.4l.2.12a46.76,46.76,0,0,1,63.59-17.84,36.68,36.68,0,0,1,14,50Z" transform="translate(-2906.7 -1115)"/></svg>