<svg id="Capa_1" data-name="Capa 1" xmlns="http://www.w3.org/2000/svg" viewBox="0 0 933.96 370.53"><defs><style>.cls-1{fill:#eb9d33;}.cls-2{fill:#ffd980;}</style></defs><title>actopan_nube05</title><path class="cls-1" d="M900.07,379a37,37,0,0,1-26.68-11.23,29.5,29.5,0,0,1-2-38.88l-2.54-2.61a33.31,33.31,0,0,0-7.08,25.59l.59,4.2-341.13,3.05a50,50,0,0,1-41.53-21.71l-.9-1.34V336l-.21-.33a46.81,46.81,0,0,1-3.79-43.49c.39-.94.82-1.88,1.27-2.8A41.87,41.87,0,0,1,513.53,266a41.09,41.09,0,0,1,18.16,4.2,32.92,32.92,0,0,1,16.6,40.57l3.27,1.6a36.51,36.51,0,0,0-18.28-45.42,44.79,44.79,0,0,0-19.77-4.6,45.34,45.34,0,0,0-40.68,25.42c-.48,1-.94,2-1.36,3a50,50,0,0,0,1,41.29l2.55,5.31H108.8l1.57-4.85a41.25,41.25,0,0,0,2-10,40.81,40.81,0,0,0-7.72-27L101.9,298a37.55,37.55,0,0,1-6,50,47.45,47.45,0,0,1-66.84-4.61,59.68,59.68,0,0,1,5.81-84.19c14.7-12.81,36.93-20.14,61-20.14,26,0,49.8,8.45,67.37,23.87l2.5-2.62a91,91,0,0,0-7.32-5.76l-1.52-1.07-.09-3.62c5.71-49.08,50.3-94.06,103.74-105.16a107.48,107.48,0,0,1,21.85-2.33c33.71,0,59.49,17.9,67.28,46.72a50,50,0,0,1-35.23,61.33,39.39,39.39,0,0,1-30.09-3.9A39.31,39.31,0,0,1,267,226.05l-3.5.95a43.24,43.24,0,0,0,51.92,26.94,53.61,53.61,0,0,0,37.78-65.75,64,64,0,0,0-39.51-43.95L310,142.79l1.73-3.61C351.24,56.43,416.77,28.55,464.77,19.73a238.56,238.56,0,0,1,43-3.89c54.44,0,108.47,18.8,137.65,47.89,57,56.84,38.6,102.42,28.05,119.39a68.88,68.88,0,0,1-94.81,22.06,54.9,54.9,0,0,1-25.71-49.64l-3.6-.46a58.54,58.54,0,0,0,27.4,53.17A72.49,72.49,0,0,0,676.5,185a76.79,76.79,0,0,0,11.74-46.12L688,135h4c71.37,0,109.94,37.66,122.22,72.88a59.65,59.65,0,0,1-36.68,76,47.35,47.35,0,0,1-60.33-29.11,37.24,37.24,0,0,1,4.2-33.21l-2.81-2.31a40.88,40.88,0,0,0-4.82,36.7,51,51,0,0,0,65,31.36A62.61,62.61,0,0,0,811,261.79l.45-.7.69-.43c9.48-6,25.86-9.68,42.74-9.68a109.62,109.62,0,0,1,23.24,2.43c16.11,3.5,38.31,12.56,52.54,35.84,15.22,24.93,13.1,61.9-4.55,79.12a37.06,37.06,0,0,1-26,10.58Z" transform="translate(-10.71 -12.13)"/><path class="cls-2" d="M507.74,19.55c58,0,109.35,21.2,135,46.81,55.11,55,37.6,98.59,27.51,114.79A65.15,65.15,0,0,1,580.59,202a51.18,51.18,0,0,1-23.65-49.72l-11-1.39a62.23,62.23,0,0,0,28.77,60.48A76.2,76.2,0,0,0,679.65,187,80.86,80.86,0,0,0,692,138.68c69.18,0,106.68,35.87,118.72,70.39a56,56,0,0,1-34.4,71.28,43.66,43.66,0,0,1-55.62-26.85,33.63,33.63,0,0,1,5.8-32.61l-8.54-7a44.58,44.58,0,0,0-7.68,43.24,54.71,54.71,0,0,0,69.67,33.64,66.47,66.47,0,0,0,34.2-27c8.4-5.28,23.82-9.1,40.77-9.1A106.48,106.48,0,0,1,877.31,257c15.41,3.35,36.62,12,50.16,34.16,14.41,23.58,12.55,58.4-4,74.53a33.59,33.59,0,0,1-47.45-.59,25.77,25.77,0,0,1,.44-36.4l-7.7-7.9a36.71,36.71,0,0,0-10.67,31.52l-336.87,3h-.42a46.08,46.08,0,0,1-38.3-20.47v-1.24h-.78a43,43,0,0,1-3.51-40.08c.37-.87.76-1.75,1.18-2.61a37.91,37.91,0,0,1,50.65-17.45,29.2,29.2,0,0,1,13.45,39l9.92,4.84a40.24,40.24,0,0,0-18.54-53.8,48.91,48.91,0,0,0-65.4,22.54c-.52,1.05-1,2.12-1.45,3.19a53.65,53.65,0,0,0,1.11,44.33H113.9a45.2,45.2,0,0,0,2.15-10.84,44.53,44.53,0,0,0-10.93-32.56L96.8,297.5a33.83,33.83,0,0,1-3.29,47.73A43.71,43.71,0,0,1,31.9,341a56,56,0,0,1,5.44-79c14.09-12.27,35.82-19.24,58.56-19.23,24,0,49.18,7.79,67.54,25.34l7.63-8a92.52,92.52,0,0,0-10.48-8.62l0-1.75c5.5-47,48.83-90.65,100.78-101.44a103.67,103.67,0,0,1,21.11-2.25c31.7,0,56.2,16.27,63.69,44a46.29,46.29,0,0,1-32.62,56.77,35.93,35.93,0,0,1-44.06-25.31l-10.65,2.88a47,47,0,0,0,45.34,34.72h0a47,47,0,0,0,12.24-1.63,57.33,57.33,0,0,0,40.39-70.31c-6-22.34-21.15-38.42-41.74-46.43C353.8,59.67,417.93,32.11,465.43,23.38a234.23,234.23,0,0,1,42.31-3.83m0-7.42a241.64,241.64,0,0,0-43.65,4c-48.85,9-115.53,37.34-155.75,121.49l-2,4.26a88.4,88.4,0,0,0-23.87-3.15,111.41,111.41,0,0,0-22.62,2.41C204.89,152.51,159,198.87,153.18,248.94l-.06.52V250l0,.91c-16.34-10.09-36.09-15.51-57.26-15.51-24.94,0-48.06,7.67-63.43,21.05a63.39,63.39,0,0,0-6.16,89.43,51.14,51.14,0,0,0,72.07,5,41.5,41.5,0,0,0,8.23-9.76h371.2a53.53,53.53,0,0,0,43,21.71h.55l336.8-3,5.59-.05a32.86,32.86,0,0,0,7,10.6,41,41,0,0,0,57.94.72c19.11-18.65,21.45-57,5.12-83.71-14.91-24.4-38.09-33.88-54.91-37.54a113.7,113.7,0,0,0-24-2.51c-15,0-29.66,2.86-39.88,7.63a63,63,0,0,0,2.69-48.27C805,170.2,765.27,131.27,692,131.26H687.8c-2.85-20.07-13.57-44-39.8-70.15-29.83-29.75-84.88-49-140.26-49Z" transform="translate(-10.71 -12.13)"/></svg>