<svg id="Capa_1" data-name="Capa 1" xmlns="http://www.w3.org/2000/svg" viewBox="0 0 324.84 93.79"><defs><style>.cls-1{fill:#532a67;}.cls-2{fill:#eb3156;}</style></defs><title>actopan</title><path class="cls-1" d="M452.77,191.34v7.27H451.2v-7.27h-2.63V190h6.86v1.34Z" transform="translate(-262.16 -110.84)"/><path class="cls-1" d="M457.89,198.61V190h1.56v8.61Z" transform="translate(-262.16 -110.84)"/><path class="cls-1" d="M464,196.18l-.71,2.43h-1.6l2.59-8.2a.56.56,0,0,1,.56-.41h1.52a.56.56,0,0,1,.56.41l2.59,8.2h-1.6l-.71-2.43Zm2-4.26c-.06-.23-.15-.5-.19-.73h-.33l-.2.73-.86,3h2.44Z" transform="translate(-262.16 -110.84)"/><path class="cls-1" d="M478.8,198a.51.51,0,0,1-.57.57H477a.65.65,0,0,1-.65-.47l-2.42-5.28a7.7,7.7,0,0,1-.51-1.29h-.15a9.65,9.65,0,0,1,.08,1.3v5.74H471.8v-8a.53.53,0,0,1,.59-.58h1.21c.34,0,.5.15.65.48l2.34,5.12c.17.38.41.9.6,1.36h.15c0-.47-.06-.93-.06-1.39V190h1.52Z" transform="translate(-262.16 -110.84)"/><path class="cls-1" d="M488.18,198.61H487l-.14-.85a3.65,3.65,0,0,1-2.52,1c-1.91,0-2.69-1.39-2.69-4.5,0-3.45,1-4.43,3.77-4.43a9,9,0,0,1,2.47.29l-.13,1.16c-.81,0-1.68-.08-2.27-.08-1.63,0-2.21.34-2.21,3.15,0,2.3.39,3.07,1.55,3.07a3.37,3.37,0,0,0,1.81-.6v-3.19h1.52Z" transform="translate(-262.16 -110.84)"/><path class="cls-1" d="M497.64,195.24c0,2.57-.86,3.53-3.22,3.53s-3.36-1-3.36-3.53V190h1.56v5.24c0,1.66.44,2.2,1.74,2.2s1.7-.54,1.7-2.2V190h1.58Z" transform="translate(-262.16 -110.84)"/><path class="cls-1" d="M500.74,198.61V190h1.56v8.61Z" transform="translate(-262.16 -110.84)"/><path class="cls-1" d="M510.77,190.14l-.1,1.11c-.71,0-1.71-.05-2.56-.05-1.05,0-1.43.06-1.43,1,0,.77.28.94,1,1.15l1.66.51a2.28,2.28,0,0,1,1.77,2.51c0,2-.85,2.41-3.06,2.41a14.11,14.11,0,0,1-2.79-.27l.1-1.15c1.63,0,2.13,0,2.73,0,1.12,0,1.43-.16,1.43-1s-.28-.94-.91-1.14l-1.73-.54a2.3,2.3,0,0,1-1.74-2.5c0-2,.9-2.31,3-2.31A10.84,10.84,0,0,1,510.77,190.14Z" transform="translate(-262.16 -110.84)"/><path class="cls-1" d="M525.68,190.21l-.15,1.19c-.78-.06-1.29-.09-2.33-.09-1.42,0-1.85.73-1.85,3.08s.43,3.09,1.85,3.09a17.51,17.51,0,0,0,2.51-.13l.14,1.17a8.12,8.12,0,0,1-2.65.33c-2.58,0-3.5-1.18-3.5-4.46s.92-4.45,3.5-4.45A8.5,8.5,0,0,1,525.68,190.21Z" transform="translate(-262.16 -110.84)"/><path class="cls-1" d="M535,195.33c0,2.57-.86,3.53-3.22,3.53s-3.36-1-3.36-3.53v-5.24H530v5.24c0,1.66.44,2.19,1.74,2.19s1.71-.53,1.71-2.19v-5.24H535Z" transform="translate(-262.16 -110.84)"/><path class="cls-1" d="M539.61,196.69c0,.52.18.71.73.71h3l.06,1.21c-1.09.1-2.26.11-3.42.11-1.43,0-1.93-.75-1.93-1.78v-6.85h1.56Z" transform="translate(-262.16 -110.84)"/><path class="cls-1" d="M548.11,191.42v7.28h-1.57v-7.28h-2.63v-1.33h6.86v1.33Z" transform="translate(-262.16 -110.84)"/><path class="cls-1" d="M559.75,195.33c0,2.57-.86,3.53-3.22,3.53s-3.35-1-3.35-3.53v-5.24h1.56v5.24c0,1.66.43,2.19,1.73,2.19s1.71-.53,1.71-2.19v-5.24h1.57Z" transform="translate(-262.16 -110.84)"/><path class="cls-1" d="M567.63,198.7,567,196a.94.94,0,0,0-1-.78H564.4v3.45h-1.54v-8.61A27.55,27.55,0,0,1,566,190c2.12,0,3,.56,3,2.52,0,1.28-.42,2-1.61,2.17v.06a1.57,1.57,0,0,1,1.15,1.27l.77,2.7ZM566,194c1.1,0,1.45-.31,1.45-1.37s-.35-1.34-1.45-1.34H564.4V194Z" transform="translate(-262.16 -110.84)"/><path class="cls-1" d="M573.36,196.26l-.71,2.44h-1.6l2.58-8.2a.57.57,0,0,1,.57-.41h1.52a.57.57,0,0,1,.56.41l2.58,8.2h-1.59l-.72-2.44Zm2-4.25c-.06-.24-.15-.5-.19-.74h-.34l-.2.74-.86,3h2.45Z" transform="translate(-262.16 -110.84)"/><path class="cls-1" d="M582.66,196.69c0,.52.19.71.74.71h3l.07,1.21c-1.09.1-2.26.11-3.42.11-1.44,0-1.94-.75-1.94-1.78v-6.85h1.56Z" transform="translate(-262.16 -110.84)"/><path class="cls-2" d="M374.65,185.36a5.13,5.13,0,0,1-1.16-3.25V128.93l8.18-2a1.61,1.61,0,0,0,1.18-2l-1.21-4.9a1.67,1.67,0,0,0-.74-1,1.61,1.61,0,0,0-1.21-.18l-6.2,1.51v-7.89a1.68,1.68,0,0,0-1.67-1.68H366.9a1.68,1.68,0,0,0-1.67,1.68v9.94l-15.53,3.85a1.6,1.6,0,0,0-1.17,1.95l1.21,4.9a1.65,1.65,0,0,0,.73,1,1.63,1.63,0,0,0,1.22.18L365.23,131v51.14a13.43,13.43,0,0,0,3,8.48l11,13.42a1.66,1.66,0,0,0,1.13.61h.17a1.67,1.67,0,0,0,1.05-.38l3.81-3.12a1.68,1.68,0,0,0,.24-2.35Z" transform="translate(-262.16 -110.84)"/><path class="cls-2" d="M419.34,138.25H388.4a9.38,9.38,0,0,0-9.37,9.37v23.74a9.38,9.38,0,0,0,9.37,9.37h30.94a9.38,9.38,0,0,0,9.37-9.37V147.62a9.38,9.38,0,0,0-9.37-9.37m1.12,10.48v21.51a2.24,2.24,0,0,1-2.24,2.24h-28.7a2.24,2.24,0,0,1-2.24-2.24V148.73a2.24,2.24,0,0,1,2.24-2.24h28.7a2.24,2.24,0,0,1,2.24,2.24" transform="translate(-262.16 -110.84)"/><path class="cls-2" d="M472,149,435.17,137.5a1,1,0,0,0-.91.15,1,1,0,0,0-.41.82V145a1,1,0,0,0,.71,1l35,11a3.17,3.17,0,0,1,2.24,3v11.4a1.58,1.58,0,0,1-1.58,1.58h-27a.75.75,0,0,1-.75-.75v-3.61a.75.75,0,0,1,.75-.75h18.85a1.13,1.13,0,0,0,1.13-1.13v-6a1.13,1.13,0,0,0-1.13-1.13H439.64a5.37,5.37,0,0,0-5.36,5.36v38a1.69,1.69,0,0,0,1.68,1.69h4.88a1.69,1.69,0,0,0,1.68-1.69V181.17h32.2a5.34,5.34,0,0,0,5.34-5.34V159.94A11.37,11.37,0,0,0,472,149" transform="translate(-262.16 -110.84)"/><path class="cls-2" d="M528.54,139a7.14,7.14,0,0,0-6.23-1.1l-36.16,10.4a1.1,1.1,0,0,0-.79,1.05l-.06,6.28a1.07,1.07,0,0,0,.43.89,1.11,1.11,0,0,0,1,.18l34.3-9.85a1.76,1.76,0,0,1,1.55.29,1.73,1.73,0,0,1,.7,1.41v21.32a3.08,3.08,0,0,1-3.08,3.08H494.41a.73.73,0,0,1-.74-.73v-1.57a.72.72,0,0,1,.53-.7L515,163.7a1.09,1.09,0,0,0,.79-1.06v-6.26a1.11,1.11,0,0,0-1.42-1.06L488.83,163a4.75,4.75,0,0,0-3.41,4.58v7.06a6.63,6.63,0,0,0,6.62,6.62h31.11a8.37,8.37,0,0,0,8.36-8.36V145.05a7.43,7.43,0,0,0-3-6" transform="translate(-262.16 -110.84)"/><path class="cls-2" d="M305.41,139a7.16,7.16,0,0,0-6.24-1.1L263,148.32a1.12,1.12,0,0,0-.8,1.05l-.06,6.28a1.11,1.11,0,0,0,.44.89,1.09,1.09,0,0,0,1,.18l34.31-9.85a1.77,1.77,0,0,1,2.25,1.7v21.32A3.08,3.08,0,0,1,297,173H271.26a.72.72,0,0,1-.72-.72v-1.59a.71.71,0,0,1,.51-.69l20.85-6.27a1.1,1.1,0,0,0,.79-1.06v-6.26a1.12,1.12,0,0,0-.45-.89,1.1,1.1,0,0,0-1-.17L265.7,163a4.75,4.75,0,0,0-3.41,4.58v7.06a6.63,6.63,0,0,0,6.62,6.62H300a8.38,8.38,0,0,0,8.37-8.36V145.05a7.43,7.43,0,0,0-3-6" transform="translate(-262.16 -110.84)"/><path class="cls-2" d="M358,172.52h-35.1a.74.74,0,0,1-.75-.75V161a3.24,3.24,0,0,1,2.46-3.15l33.27-8.28a1.69,1.69,0,0,0,1.28-1.64v-5a1.69,1.69,0,0,0-2.1-1.64l-34.43,8.57A11.49,11.49,0,0,0,313.91,161v12.6a7.14,7.14,0,0,0,7.13,7.13h37a1.69,1.69,0,0,0,1.68-1.69v-4.87a1.69,1.69,0,0,0-1.68-1.69" transform="translate(-262.16 -110.84)"/><path class="cls-2" d="M574.64,149.07,548.9,138.91a8,8,0,0,0-8,.3,8.32,8.32,0,0,0-3.87,7.1v33.21a1.7,1.7,0,0,0,1.7,1.7h4.85a1.7,1.7,0,0,0,1.7-1.7V148.23a1.55,1.55,0,0,1,.59-1.08,1.87,1.87,0,0,1,1.66.18l24,9.41a11.24,11.24,0,0,1,7.14,10.51v12.27a1.7,1.7,0,0,0,1.7,1.7h4.85a1.7,1.7,0,0,0,1.7-1.7V167.25a19.44,19.44,0,0,0-12.36-18.18" transform="translate(-262.16 -110.84)"/></svg>