<svg id="Capa_1" data-name="Capa 1" xmlns="http://www.w3.org/2000/svg" viewBox="0 0 547.09 211.73"><defs><style>.cls-1{fill:#ffd980;}</style></defs><title>actopan_nubeamarilla2</title><path class="cls-1" d="M570.47,1713c-8.06-13.2-20.69-18.34-29.86-20.33-14.71-3.2-30.46-.49-37.63,4a39.59,39.59,0,0,1-20.36,16.06,32.55,32.55,0,0,1-41.47-20,26.54,26.54,0,0,1,4.57-25.74l5.08,4.16a20,20,0,0,0-3.45,19.41,26,26,0,0,0,33.11,16,33.3,33.3,0,0,0,20.48-42.42c-7.17-20.55-29.49-41.9-70.67-41.91a48.11,48.11,0,0,1-7.32,28.76,45.35,45.35,0,0,1-62.44,14.53,37.05,37.05,0,0,1-17.13-36l6.52.83A30.44,30.44,0,0,0,364,1659.89a38.8,38.8,0,0,0,53.39-12.42c6-9.65,16.43-35.62-16.38-68.34-18.93-18.87-61.27-33.72-105.56-25.58-28.28,5.2-66.45,21.6-89.53,69.89a40.15,40.15,0,0,1,24.85,27.64,34.13,34.13,0,0,1-24,41.85,28,28,0,0,1-34.29-19.7l6.34-1.72A21.39,21.39,0,0,0,205,1686.58a27.55,27.55,0,0,0,19.42-33.79c-5.41-20-25.7-30-50.48-24.84-30.92,6.42-56.72,32.38-60,60.38l0,1.05a55,55,0,0,1,6.24,5.12l-4.54,4.75c-21.28-20.34-57.82-18.66-75.06-3.64a33.31,33.31,0,0,0-3.25,47A26,26,0,0,0,74,1745.14a20.15,20.15,0,0,0,2-28.41l5-4.32a26.52,26.52,0,0,1,6.51,19.38,26.81,26.81,0,0,1-1.28,6.46H297.65a31.93,31.93,0,0,1-.66-26.39c.26-.64.55-1.27.86-1.9a29.13,29.13,0,0,1,38.93-13.42,24,24,0,0,1,11,32l-5.9-2.88a17.38,17.38,0,0,0-8-23.24,22.58,22.58,0,0,0-30.15,10.38c-.25.52-.48,1-.7,1.56a25.6,25.6,0,0,0,2.09,23.86h.46v.73a27.44,27.44,0,0,0,22.8,12.19h.25l200.53-1.8a21.84,21.84,0,0,1,6.36-18.75l4.58,4.7a15.35,15.35,0,0,0-.26,21.67,20,20,0,0,0,28.24.34C577.94,1747.74,579.05,1727,570.47,1713Z" transform="translate(-29.16 -1551.27)"/></svg>