<svg id="Capa_1" data-name="Capa 1" xmlns="http://www.w3.org/2000/svg" viewBox="0 0 639.55 285.5"><defs><style>.cls-1{fill:#eb9d33;}.cls-2{fill:#ffd980;}</style></defs><title>actopan_nube03</title><path class="cls-1" d="M665.41,301.76a34.09,34.09,0,0,1-32.16-22.83A26.61,26.61,0,0,1,635.72,256l-2.9-2.38a30.17,30.17,0,0,0-4.56,19.88l.47,4.06-466.52,1.6,3.64-5.65a41.71,41.71,0,0,0-1.38-47l-2.82,2.46a38,38,0,0,1-6,50.71A48,48,0,0,1,88.07,275a60.38,60.38,0,0,1,5.87-85.19c14.87-13,37.37-20.39,61.72-20.39,26.4,0,50.48,8.58,68.27,24.24l2.56-2.69a94.26,94.26,0,0,0-17.25-12l-1.93-1.05,0-2.2c.73-57.13,34.25-109.87,85.38-134.36a184.81,184.81,0,0,1,78.21-17.8c29.41,0,54.35,7.62,70.24,21.46,28.13,24.49,36.9,53.86,23.48,78.55a45.53,45.53,0,0,1-27.27,22.05,45.59,45.59,0,0,1-34.88-3.68,36.43,36.43,0,0,1-18.94-30.69l-3.73-.25a40.15,40.15,0,0,0,20.89,34.2,49.54,49.54,0,0,0,67.2-19.86,55.06,55.06,0,0,0,5.58-15l.36-1.74,1.6-.79C492.74,99.27,510.13,95,527.13,95c28.49,0,56.23,12.84,74.21,34.33a59.23,59.23,0,0,1,10.77,56.82l-.78,2.38h-.06a59.28,59.28,0,0,1-17.43,24.63,47.28,47.28,0,0,1-66.55-5.95,37.16,37.16,0,0,1-7.73-32.49l-3.55-1.2a40.89,40.89,0,0,0,8.43,36.09A51.05,51.05,0,0,0,596.23,216a62.69,62.69,0,0,0,16.65-21.63l1-2.13,2.36,0c50.64.67,78,27.72,86.8,52.81a43,43,0,0,1-26.43,54.78,33.76,33.76,0,0,1-11.2,1.91Z" transform="translate(-69.57 -19.91)"/><path class="cls-2" d="M370.92,27.21c27.38,0,52.17,6.9,67.85,20.56,26.75,23.29,35.22,51,22.68,74a41.92,41.92,0,0,1-25.1,20.3,41.95,41.95,0,0,1-32.11-3.39,32.76,32.76,0,0,1-17-30.89l-11-.74A43.83,43.83,0,0,0,399,148.41a53.21,53.21,0,0,0,72.15-21.32,58.58,58.58,0,0,0,5.94-16c17.87-8.79,34.72-12.43,50.06-12.43a93.34,93.34,0,0,1,71.41,33A55.83,55.83,0,0,1,608.65,185h-.45l0,1.18a55.42,55.42,0,0,1-16.74,24.17,43.64,43.64,0,0,1-61.41-5.49,33.58,33.58,0,0,1-6.07-32.5l-10.44-3.53a44.51,44.51,0,0,0,8.06,43.1,54.53,54.53,0,0,0,41.94,19.56h0a54.41,54.41,0,0,0,35-12.68,66.54,66.54,0,0,0,17.62-22.88c48.58.64,74.9,26,83.41,50.37a39.4,39.4,0,0,1-24.2,50.13,30.07,30.07,0,0,1-10,1.71,30.44,30.44,0,0,1-28.71-20.39,23.08,23.08,0,0,1,4-22.38l-8.52-7A34,34,0,0,0,624.64,274L168.91,275.5a45.3,45.3,0,0,0-4-54.26l-8.31,7.23a34.34,34.34,0,0,1-3.33,48.43,44.33,44.33,0,0,1-62.48-4.31,56.72,56.72,0,0,1,5.52-80c14.26-12.42,36.29-19.49,59.32-19.48,24.35,0,49.82,7.89,68.43,25.68l7.62-8a96.92,96.92,0,0,0-20.72-15c.72-55.79,33.32-107.18,83.3-131.12a180.81,180.81,0,0,1,76.63-17.44m0-7.3a188.53,188.53,0,0,0-79.78,18.16c-52.37,25.08-86.69,79.1-87.45,137.61v.43a112.6,112.6,0,0,0-48-10.34c-25.22,0-48.59,7.76-64.12,21.28a64,64,0,0,0-6.22,90.34,51.62,51.62,0,0,0,72.26,5.45l11.36,0,455.73-1.56,5.54,0a37.66,37.66,0,0,0,47.6,22.08,46.71,46.71,0,0,0,28.68-59.43c-9.16-26.26-37.67-54.57-90.21-55.25l-1.15,0,.23-.68.22-.64v0A62.84,62.84,0,0,0,604.14,127c-18.66-22.32-47.45-35.65-77-35.65-17.41,0-35.19,4.36-52.83,13,1.84-20.86-8.81-42.91-30.74-62C427,27.85,401.22,19.91,370.92,19.91Z" transform="translate(-69.57 -19.91)"/></svg>