<svg id="Capa_1" data-name="Capa 1" xmlns="http://www.w3.org/2000/svg" viewBox="0 0 293.42 293.42"><defs><style>.cls-1{opacity:0.55;}.cls-2{fill:#fff;}.cls-3{fill:#9c2363;}</style></defs><title>actopan_down</title><g class="cls-1"><path class="cls-2" d="M205.68,246.68a9.63,9.63,0,1,1-19.26,0,32.86,32.86,0,0,1,32.83-32.82h76.48V42.5A39.47,39.47,0,0,0,256.26,3H41.79A39.48,39.48,0,0,0,2.31,42.5V213.86H78.79a32.86,32.86,0,0,1,32.83,32.82,9.63,9.63,0,1,1-19.25,0,13.6,13.6,0,0,0-13.58-13.57H2.31V257a39.48,39.48,0,0,0,39.48,39.47H256.26A39.47,39.47,0,0,0,295.73,257V233.11H219.25A13.59,13.59,0,0,0,205.68,246.68Z" transform="translate(-2.31 -3.03)"/></g><path class="cls-3" d="M228.43,116.05l-.07.06-12.59-12.59L203.1,90.85l-12.67,12.67-7.54,7.55V3H165.07V128.88h0l0,0,12.67,12.67,0,0,12.59,12.6L149,195.47l-41.39-41.4,12.59-12.59,12.67-12.67-.1-.1V3H115V110.9l-7.42-7.42L94.88,90.81,82.21,103.48,69.62,116.07,57,128.74l12.67,12.67,66.72,66.73L149,220.8l12.67-12.66,66.68-66.69L241,128.78l.07-.06ZM95,141.41,82.28,128.74l12.6-12.6,12.67,12.67Zm108.05.07-12.6-12.6,12.7-12.69,12.6,12.59Z" transform="translate(-2.31 -3.03)"/></svg>