<svg id="Capa_1" data-name="Capa 1" xmlns="http://www.w3.org/2000/svg" viewBox="0 0 379.1 171.74"><defs><style>.cls-1{fill:#ffd980;}</style></defs><title>actopan_nubeamarilla_contorno3</title><path class="cls-1" d="M1132.47,2115.45a39.19,39.19,0,0,0-7.73-35.4c-14-16.7-41.77-30.14-75.47-15.35-.25-11.79-6.7-23.93-18.86-34.52-19.72-17.18-59.14-18.37-91.69-2.78a93.3,93.3,0,0,0-52.4,79.65,69.78,69.78,0,0,0-24.25-4.94c-16-.45-30.87,4.26-40.8,12.91a39.7,39.7,0,0,0-3.86,56,32.39,32.39,0,0,0,44.72,3.94l274.77-.94a24.23,24.23,0,0,0,30,12.81,29.56,29.56,0,0,0,18.15-37.6C1179.51,2133.23,1162.8,2116.6,1132.47,2115.45Zm32.35,65.29a17.82,17.82,0,0,1-22.68-10.94,13.55,13.55,0,0,1,2.33-13.12l-5-4.09a19.9,19.9,0,0,0-4.4,15l-267,.91a26.58,26.58,0,0,0-2.33-31.8l-4.87,4.24a20.12,20.12,0,0,1-2,28.38,26,26,0,0,1-36.61-2.52,33.24,33.24,0,0,1,3.23-46.9c17.19-15,53.64-16.66,74.86,3.63l4.46-4.67a57,57,0,0,0-12.14-8.8,86.82,86.82,0,0,1,48.82-76.83c29.87-14.3,67.06-13.5,84.66,1.83,15.67,13.65,20.63,29.87,13.28,43.39a24.71,24.71,0,0,1-33.52,9.91,19.2,19.2,0,0,1-9.95-18.1l-6.44-.43a25.67,25.67,0,0,0,13.31,24.2,31.17,31.17,0,0,0,42.27-12.49,34.3,34.3,0,0,0,3.49-9.41c31.92-15.69,58.24-3.4,71.17,12.07a32.72,32.72,0,0,1,5.93,31.25h-.27l0,.69a32.57,32.57,0,0,1-9.81,14.17,25.58,25.58,0,0,1-36-3.22,19.66,19.66,0,0,1-3.56-19.05L1070,2106a26.1,26.1,0,0,0,4.72,25.26,32,32,0,0,0,45.08,4,38.79,38.79,0,0,0,10.32-13.41c28.47.38,43.89,15.22,48.88,29.52A23.08,23.08,0,0,1,1164.82,2180.74Z" transform="translate(-807.64 -2016.46)"/></svg>