<svg id="Capa_1" data-name="Capa 1" xmlns="http://www.w3.org/2000/svg" viewBox="0 0 540.19 216.81"><defs><style>.cls-1{fill:#ffd980;}</style></defs><title>actopan_nubeamarilla_contorno2</title><path class="cls-1" d="M1191.47,1702.12c-7.08-11.59-18.44-19.37-32.85-22.5a67.17,67.17,0,0,0-33.45,1.36,38.33,38.33,0,0,0-.16-24.78c-7.69-22-31.38-44.9-74.91-44.65-2.49-13.31-10.24-27-23-39.66-10.58-10.54-26.78-19.07-45.64-24a142.9,142.9,0,0,0-61.76-2.39c-28.89,5.31-67.94,22.11-91.29,71.72a59.92,59.92,0,0,0-26,0c-29.9,6.21-57.06,33.24-62.81,61.57a65.9,65.9,0,0,0-29.11-7.41c-15.49-.41-29.9,4.13-39.51,12.5a38.45,38.45,0,0,0-3.74,54.26,31.43,31.43,0,0,0,44.3,3,25.74,25.74,0,0,0,4.45-5.09H927a32.72,32.72,0,0,0,25.7,12.47H953l195.22-1.74a21,21,0,0,0,3.83,5.44,25.48,25.48,0,0,0,18,7.72h.33a25.44,25.44,0,0,0,17.86-7.27C1198.54,1742.63,1202.33,1719.89,1191.47,1702.12Zm-7.69,46.07a19.27,19.27,0,0,1-27.23-.33,14.78,14.78,0,0,1,.25-20.89l-4.42-4.54a21,21,0,0,0-6.37,14.85,21.78,21.78,0,0,0,.23,3.24l-193.33,1.73h-.24a26.47,26.47,0,0,1-22-11.75v-.71h-.44a24.67,24.67,0,0,1-2-23c.21-.51.44-1,.68-1.5a21.77,21.77,0,0,1,29.07-10,16.78,16.78,0,0,1,7.72,22.41l5.69,2.78a23.12,23.12,0,0,0-10.63-30.88,28.07,28.07,0,0,0-37.54,12.93c-.3.61-.58,1.22-.83,1.84a30.8,30.8,0,0,0,.63,25.44H719.1a25.74,25.74,0,0,0-5-24.91L709.3,1709a19.45,19.45,0,0,1-1.89,27.4,25.1,25.1,0,0,1-35.36-2.44,32.11,32.11,0,0,1,3.12-45.32c16.63-14.48,51.86-16.1,72.38,3.51l4.37-4.58a54.45,54.45,0,0,0-6.49-5.29c4.18-26.82,29.89-53,58.3-58.88,23.89-5,43.46,4.66,48.67,24A26.61,26.61,0,0,1,833.68,1680a20.62,20.62,0,0,1-25.29-14.53l-6.12,1.65a27,27,0,0,0,26,19.93,26.59,26.59,0,0,0,7-.94,32.93,32.93,0,0,0,23.18-40.35,38.74,38.74,0,0,0-24-26.65c22.25-46.56,59.06-62.37,86.32-67.38,42.72-7.86,83.53,6.47,101.78,24.67,31.63,31.54,21.59,56.58,15.8,65.88a37.41,37.41,0,0,1-51.48,12,29.36,29.36,0,0,1-13.58-28.54l-6.28-.79a35.72,35.72,0,0,0,16.51,34.71,43.73,43.73,0,0,0,60.2-14,46.32,46.32,0,0,0,7.06-27.73c39.71,0,61.23,20.59,68.14,40.41a32.14,32.14,0,0,1-19.74,40.9,25.06,25.06,0,0,1-31.92-15.41,19.27,19.27,0,0,1,3.32-18.71l-4.9-4a25.58,25.58,0,0,0-4.4,24.82,31.33,31.33,0,0,0,40,19.3,38.2,38.2,0,0,0,19.63-15.48c6.91-4.35,22.1-7,36.28-3.88,8.84,1.92,21,6.89,28.79,19.61C1194.33,1719,1193.26,1738.94,1183.78,1748.19Z" transform="translate(-657.81 -1543.19)"/></svg>