<svg id="Capa_1" data-name="Capa 1" xmlns="http://www.w3.org/2000/svg" viewBox="0 0 236.63 299.45"><defs><style>.cls-1{fill:#9c2363;}</style></defs><title>actopan_imagotipo</title><path class="cls-1" d="M189.56,179A23,23,0,0,0,169,166.15H110.76a2.3,2.3,0,0,1-1.93-3.56L131,127.52l24.67,24.21a16,16,0,0,0,6.42,3.77l.27.08a16.43,16.43,0,0,0,12-.79,15.88,15.88,0,0,0,7.52-20.74L143.38,50.3l19.84-31.15a22.49,22.49,0,0,1,4.57,13.62v7.88H161.5V51.09h16.73V33.47c0-18-14.08-33.22-32.07-33.76a33.36,33.36,0,0,0-32.71,42.78l-3.7,5.9,8.81,5.6.93-1.47,5.7-9.11,0,0v0a22.4,22.4,0,0,1-2.63-9.85,22.61,22.61,0,0,1,32.57-21.07L70.9,144.65c-2.91,4.39-6.05,7-9.33,7.64s-7.18-.46-11.55-3.4c-9.22-6.2-10.56-12.15-4.75-21.23l36-56.88a22.35,22.35,0,0,0,.87-22.57A21.84,21.84,0,0,0,63.81,36.4V46.89a11.33,11.33,0,0,1,9,6.17,12,12,0,0,1-.46,12.15L36.55,121.92h0l0,.06-.09.15h0C27.61,136,30.3,148.22,44.2,157.55c5.32,3.58,10.5,5.38,15.44,5.38a20.21,20.21,0,0,0,4-.41c6.11-1.27,11.49-5.38,16-12.23h0l0,0c.09-.12.17-.25.25-.37h0L136.7,60.78l35.66,77.53a5.42,5.42,0,0,1-2.74,7.17,5.74,5.74,0,0,1-4,.17l-.47-.14a5.57,5.57,0,0,1-2.2-1.29l-30.67-30a3.65,3.65,0,0,0-5.64.67L100,157a12.77,12.77,0,0,0,1.36,15.5,13.12,13.12,0,0,0,9.74,4.1H169a12.53,12.53,0,0,1,11.17,7l44.08,90-11.81-.08L170,208.3a17.4,17.4,0,0,0-14.58-7.9H97.52v-.05c-14.93,0-27.36-9.54-29.84-22a5.49,5.49,0,0,0-4.77-4.57,5.21,5.21,0,0,0-5.56,6.1C60,194.19,71.7,205.78,86.93,209.52L62.32,246.14l-33.6,42.57H17.52L45.82,240l14.71-38.78-9.76-3.7-14.4,38-33.7,58a3.78,3.78,0,0,0,3.26,5.67H29.65a8.51,8.51,0,0,0,6.69-3.25l34.3-43.45,28-41.61h56.81a7,7,0,0,1,5.83,3.16l43,66a8.51,8.51,0,0,0,7.07,3.86l23.64.19a3.77,3.77,0,0,0,3.42-5.43Z" transform="translate(-2.16 0.3)"/><path class="cls-1" d="M91.66,42.58a33.82,33.82,0,0,1-1.33,34.1l-25,39.46a3.38,3.38,0,0,0,1,4.66L69,122.48a3.37,3.37,0,0,0,4.65-1L98.68,82a43.56,43.56,0,0,0,1.73-44,43,43,0,0,0-36.6-23.26v9.91A33.23,33.23,0,0,1,91.66,42.58Z" transform="translate(-2.16 0.3)"/><circle class="cls-1" cx="56.81" cy="135.12" r="5.48"/></svg>