<svg id="Capa_1" data-name="Capa 1" xmlns="http://www.w3.org/2000/svg" viewBox="0 0 637.36 289.01"><defs><style>.cls-1{fill:#ffd980;}.cls-2{fill:#eb9d33;stroke:#eb9d33;stroke-miterlimit:10;stroke-width:0.5px;}</style></defs><title>actopan_nube02</title><path class="cls-1" d="M550.91,182.54a65.48,65.48,0,0,1-17.34,22.52,53.81,53.81,0,0,1-75.72-6.77,43.83,43.83,0,0,1-7.94-42.43l10.28,3.48a33,33,0,0,0,6,32,43,43,0,0,0,60.44,5.41,54.56,54.56,0,0,0,16.48-23.8l0-1.16h.44a54.94,54.94,0,0,0-10-52.5C511.82,93.29,467.6,72.64,414,99a57.66,57.66,0,0,1-5.86,15.8,52.35,52.35,0,0,1-71,21,43.11,43.11,0,0,1-22.35-40.66l10.81.73a32.25,32.25,0,0,0,16.72,30.4,41.5,41.5,0,0,0,56.31-16.64c12.35-22.72,4-50-22.31-72.9-29.57-25.75-92-27.09-142.22-3.06-49.2,23.56-81.3,74.15-82,129.06a95.67,95.67,0,0,1,20.39,14.78L165,185.33c-35.65-34.07-96.88-31.26-125.76-6.09A55.83,55.83,0,0,0,33.76,258a43.64,43.64,0,0,0,61.51,4.24,33.79,33.79,0,0,0,3.28-47.67l8.18-7.12a44.64,44.64,0,0,1,3.91,53.42l448.6-1.54a33.39,33.39,0,0,1,7.38-25.17l8.39,6.87a22.73,22.73,0,0,0-3.91,22,29.94,29.94,0,0,0,38.1,18.39A38.79,38.79,0,0,0,633,232.12C624.64,208.1,598.73,183.17,550.91,182.54Z" transform="translate(-8.93 -5.23)"/><path class="cls-2" d="M554.85,171.78a65.84,65.84,0,0,0-13-59.47c-23.44-28-70.17-50.63-126.78-25.79-.41-19.8-11.24-40.19-31.68-58-33.12-28.85-99.34-30.85-154-4.66-51.42,24.62-85.47,76.7-88,133.79a117.5,117.5,0,0,0-40.73-8.28c-26.83-.76-51.86,7.15-68.53,21.68a66.67,66.67,0,0,0-6.49,94.09,54.4,54.4,0,0,0,75.12,6.62l461.59-1.58a40.73,40.73,0,0,0,50.48,21.52,49.66,49.66,0,0,0,30.49-63.16C633.88,201.65,605.8,173.72,554.85,171.78ZM609.2,281.47a29.94,29.94,0,0,1-38.1-18.39,22.73,22.73,0,0,1,3.91-22l-8.39-6.87a33.39,33.39,0,0,0-7.38,25.17l-448.6,1.54a44.64,44.64,0,0,0-3.91-53.42l-8.18,7.12a33.79,33.79,0,0,1-3.28,47.67A43.64,43.64,0,0,1,33.76,258a55.83,55.83,0,0,1,5.44-78.78c28.88-25.17,90.11-28,125.76,6.09l7.49-7.84a95.67,95.67,0,0,0-20.39-14.78c.7-54.91,32.8-105.5,82-129.06,50.18-24,112.65-22.69,142.22,3.06,26.32,22.93,34.66,50.18,22.31,72.9a41.5,41.5,0,0,1-56.31,16.64,32.25,32.25,0,0,1-16.72-30.4l-10.81-.73a43.11,43.11,0,0,0,22.35,40.66,52.35,52.35,0,0,0,71-21A57.66,57.66,0,0,0,414,99c53.62-26.35,97.84-5.7,119.56,20.28a54.94,54.94,0,0,1,10,52.5h-.44l0,1.16a54.56,54.56,0,0,1-16.48,23.8,43,43,0,0,1-60.44-5.41,33,33,0,0,1-6-32l-10.28-3.48a43.83,43.83,0,0,0,7.94,42.43,53.81,53.81,0,0,0,75.72,6.77,65.48,65.48,0,0,0,17.34-22.52c47.82.63,73.73,25.56,82.11,49.58A38.79,38.79,0,0,1,609.2,281.47Z" transform="translate(-8.93 -5.23)"/></svg>