<svg id="Capa_1" data-name="Capa 1" xmlns="http://www.w3.org/2000/svg" viewBox="0 0 1271.46 371.21"><defs><style>.cls-1{fill:#f1836e;}</style></defs><title>actopan_nuberosa</title><path class="cls-1" d="M110.8,1435.9a46.64,46.64,0,0,0-63.43,17.79l-.2-.12a35,35,0,0,1-19.28,13.59A35.13,35.13,0,0,1,1,1464a29,29,0,0,1-11-39.4l5.87,3.29a22.23,22.23,0,0,0,8.48,30.24,28.59,28.59,0,0,0,38.94-10.92,36.64,36.64,0,0,0-14-49.82,46.26,46.26,0,0,0-35.4-4.25,46.48,46.48,0,0,0-18.3,10,40.4,40.4,0,0,1-5.21,19.29,35,35,0,0,1-21.26,16.71,35.44,35.44,0,0,1-9.59,1.33,35.08,35.08,0,0,1-17.25-4.54,28.77,28.77,0,0,1-13.69-17.41,28.76,28.76,0,0,1,2.63-22l5.87,3.3a22,22,0,0,0-2,16.87A22.08,22.08,0,0,0-74.41,1430a28.63,28.63,0,0,0,38.94-10.93,34.07,34.07,0,0,0,2.75-6.25,33.6,33.6,0,0,0,1.62-12.66c-.7-11.56-7.19-23-18.64-31.1-12.72-9-36.83-11.63-60-6.43-10.17,2.28-19,5.8-25.6,10.09a39.42,39.42,0,0,1-3.75,9.43,35.11,35.11,0,0,1-21.26,16.71,35.44,35.44,0,0,1-9.59,1.33,35.12,35.12,0,0,1-17.25-4.55,28.71,28.71,0,0,1-13.69-17.41,28.73,28.73,0,0,1,2.63-22l5.87,3.29a22,22,0,0,0-2,16.88,22.06,22.06,0,0,0,10.5,13.36,28.45,28.45,0,0,0,21.74,2.6,28.33,28.33,0,0,0,14.65-9.77,28,28,0,0,0,2.56-3.76,32.78,32.78,0,0,0,3.55-10.14,50.31,50.31,0,0,0-2.47-25.46c-3.89-11.09-13.22-27.4-35.52-42.17-31.38-20.79-87.82-13.16-115.6.33a66,66,0,0,1-3.84,8.08,57.24,57.24,0,0,1-49.95,29.16,56.79,56.79,0,0,1-27.91-7.32,46.09,46.09,0,0,1-21.95-27.93,46.12,46.12,0,0,1,4.22-35.27l5.87,3.3a39.36,39.36,0,0,0-3.61,30.16,39.43,39.43,0,0,0,18.77,23.88,50.52,50.52,0,0,0,67.44-17.16c.43-.69.85-1.39,1.26-2.11a61.36,61.36,0,0,0,4.34-9.53c10.88-30.74-8-60.54-29.23-77.81-37.41-30.45-117.4-20.68-146.65,1.76a62.35,62.35,0,0,1-7.27,30.13,58.26,58.26,0,0,1-34.44,28.75,58.6,58.6,0,0,1-17.56,2.7,58.31,58.31,0,0,1-27.12-6.72,47.69,47.69,0,0,1-25.44-44.6l6.71.34a41,41,0,0,0,21.85,38.31,51.56,51.56,0,0,0,39.55,3.55,51.53,51.53,0,0,0,30.49-25.45,57.8,57.8,0,0,0,6.48-25.12c0-1.62,0-3.29-.09-5-1-16.36-9.14-37-34.75-59-26.83-23-84.12-38.49-141.69-23.41-34.46,9-79.44,31.89-106.07,89,15.75,8.82,26,23.12,28.12,40.84a46.86,46.86,0,0,1-40.93,52,38.79,38.79,0,0,1-4.54.27,38.18,38.18,0,0,1-37.83-33.6l6.69-.8a31.4,31.4,0,0,0,34.88,27.45,39.83,39.83,0,0,0,26.75-15,39.84,39.84,0,0,0,8.3-29.54c-2-16.94-11.82-28.32-24.23-35.35a66.52,66.52,0,0,0-6-3,78.9,78.9,0,0,0-26.92-6.17c-35.56-1.85-78.32,35.35-91.41,63.38a42.89,42.89,0,0,1,20.6,37.7,35.06,35.06,0,0,1-10.93,24.73,35.06,35.06,0,0,1-24.36,9.77h-.85a28.76,28.76,0,0,1-20.26-9,28.73,28.73,0,0,1-8-20.65l6.72.15a22.24,22.24,0,0,0,21.68,22.73,28.46,28.46,0,0,0,20.42-7.9,28.47,28.47,0,0,0,8.85-20,36.18,36.18,0,0,0-16.4-31.14,38.86,38.86,0,0,0-6-3.21,38.93,38.93,0,0,0-13.44-3.1c-31.26-1.49-54.5,15.58-65.57,25.89-14.62,13.6-24.84,31-26.09,44,14,3,26.56,9.29,36.19,18.5l-4.64,4.86c-26.25-25.08-71.35-23-92.62-4.47a41.41,41.41,0,0,0-4,58.36,32.46,32.46,0,0,0,45.74,3.16,25.29,25.29,0,0,0,2.46-35.65l5.07-4.41a32,32,0,0,1-3.11,45.13,39,39,0,0,1-25.68,9.61,39.06,39.06,0,0,1-29.55-13.42,47.93,47.93,0,0,1-9.69-17.44c-31.86-.87-49,15.24-54.45,30.72a24.06,24.06,0,0,0,14.77,30.61,18.58,18.58,0,0,0,23.63-11.41,13.78,13.78,0,0,0,.6-2.5v-1h.14a14.15,14.15,0,0,0-3.17-10.18l5.2-4.26a20.79,20.79,0,0,1,4.7,14.47l338.49,1.84h.25a28.13,28.13,0,0,0,23.38-12.49A26.3,26.3,0,0,0-730,1429.5c-.22-.54-.46-1.07-.72-1.6a23.12,23.12,0,0,0-30.89-10.64,17.66,17.66,0,0,0-9,10.21,17.65,17.65,0,0,0,.83,13.6l-6,3a24.35,24.35,0,0,1-1.14-18.74,24.35,24.35,0,0,1,12.44-14.07A29.88,29.88,0,0,1-724.69,1425c.31.65.61,1.3.88,2a32.68,32.68,0,0,1-1.05,27.82h225.31a48.21,48.21,0,0,1,3.33-25.58c.4-1,.84-1.92,1.3-2.87a43.43,43.43,0,0,1,25.06-22.18,43.44,43.44,0,0,1,33.4,2,35.43,35.43,0,0,1,18.08,20.43,35.36,35.36,0,0,1-1.66,27.24l-6-3a28.73,28.73,0,0,0,1.34-22.09,28.66,28.66,0,0,0-14.67-16.58,36.7,36.7,0,0,0-28.26-1.72,36.72,36.72,0,0,0-21.2,18.76c-.41.83-.79,1.68-1.14,2.53a41.8,41.8,0,0,0,4.14,40.07,44.63,44.63,0,0,0,37.1,19.84h.4l518.59-2.82a28.92,28.92,0,0,1,1.26-25.72l5.87,3.3a22.21,22.21,0,0,0,.38,22.38h.53v.83a22.2,22.2,0,0,0,7.57,7,28.64,28.64,0,0,0,38.94-10.93,36.59,36.59,0,0,0-14-49.82Z" transform="translate(1141.98 -1129.1)"/></svg>