<svg id="Capa_1" data-name="Capa 1" xmlns="http://www.w3.org/2000/svg" viewBox="0 0 378.24 163.97"><defs><style>.cls-1{fill:#ffd980;}</style></defs><title>actopan_nubeamarilla3</title><path class="cls-1" d="M672.66,2118.83A40.27,40.27,0,0,1,662,2132.67a33.09,33.09,0,0,1-46.56-4.16,26.93,26.93,0,0,1-4.88-26.08l6.32,2.13a20.29,20.29,0,0,0,3.67,19.67,26.41,26.41,0,0,0,37.17,3.33,33.52,33.52,0,0,0,10.13-14.63l0-.72h.28a33.81,33.81,0,0,0-6.12-32.28c-13.36-16-40.54-28.68-73.52-12.47a35.18,35.18,0,0,1-3.6,9.71,32.19,32.19,0,0,1-43.66,12.91,26.52,26.52,0,0,1-13.75-25l6.65.44a19.84,19.84,0,0,0,10.28,18.7A25.55,25.55,0,0,0,579,2074c7.59-14,2.46-30.73-13.73-44.83-18.17-15.83-56.59-16.66-87.44-1.88a89.64,89.64,0,0,0-50.42,79.36,58.82,58.82,0,0,1,12.54,9.08l-4.61,4.83c-21.92-21-59.57-19.23-77.32-3.75a34.32,34.32,0,0,0-3.34,48.44,26.84,26.84,0,0,0,37.81,2.61,20.79,20.79,0,0,0,2-29.32l5-4.38A27.46,27.46,0,0,1,402,2167l275.83-.94a20.56,20.56,0,0,1,4.54-15.48l5.16,4.22a14,14,0,0,0-2.41,13.55,18.42,18.42,0,0,0,23.43,11.31,23.87,23.87,0,0,0,14.65-30.35C718,2134.54,702.06,2119.21,672.66,2118.83Z" transform="translate(-346.24 -2016.72)"/></svg>