<svg id="Capa_1" data-name="Capa 1" xmlns="http://www.w3.org/2000/svg" viewBox="0 0 214.36 271.26"><defs><style>.cls-1{fill:#9c2363;}</style></defs><title>actopan_imagotipo2</title><path class="cls-1" d="M178.09,166.78a20.85,20.85,0,0,0-18.62-11.61H106.71a2.09,2.09,0,0,1-1.75-3.23L125,120.17l22.36,21.94a14.5,14.5,0,0,0,5.81,3.41l.25.07a14.83,14.83,0,0,0,10.86-.72,14.39,14.39,0,0,0,6.82-18.78L136.25,50.22l18-28.22a20.39,20.39,0,0,1,4.14,12.34v7.14h-5.7v9.46h15.16V35c0-16.3-12.75-30.1-29-30.58a30,30,0,0,0-30.86,29.94,30.36,30.36,0,0,0,1.23,8.81l-3.35,5.34,8,5.07.84-1.33L119.78,44l0,0h0A20.32,20.32,0,0,1,117.38,35a20.49,20.49,0,0,1,29.5-19.09L70.6,135.69c-2.64,4-5.49,6.31-8.46,6.92s-6.5-.42-10.46-3.08c-8.35-5.61-9.56-11-4.3-19.23L80,68.78a20.26,20.26,0,0,0,.79-20.45,19.76,19.76,0,0,0-16.56-10.7v9.5a10.28,10.28,0,0,1,8.19,5.6,10.91,10.91,0,0,1-.41,11L39.48,115.1h0a.21.21,0,0,1,0,.06l-.08.13h0c-8,12.54-5.55,23.63,7,32.09,4.82,3.24,9.51,4.87,14,4.87a17.88,17.88,0,0,0,3.65-.38c5.54-1.14,10.42-4.87,14.51-11.07h0l0,0c.07-.12.15-.23.23-.35h0l51.41-80.71L162.5,130a4.9,4.9,0,0,1-2.48,6.49,5.18,5.18,0,0,1-3.64.16l-.43-.13a5,5,0,0,1-2-1.17l-27.78-27.14a3.31,3.31,0,0,0-5.11.6L97,146.87a11.55,11.55,0,0,0,1.23,14,11.91,11.91,0,0,0,8.82,3.72h52.44a11.34,11.34,0,0,1,10.13,6.31l39.93,81.48-10.7-.07-38.46-59a15.76,15.76,0,0,0-13.21-7.16H94.71v0c-13.52,0-24.79-8.64-27-20A5,5,0,0,0,63.36,162a4.73,4.73,0,0,0-5,5.53c2.38,13,13,23.5,26.79,26.89L62.82,227.62,32.39,266.19H22.24L47.88,222,61.2,186.9l-8.84-3.35-13,34.4L8.79,270.51a3.41,3.41,0,0,0,3,5.13H33.23a7.73,7.73,0,0,0,6.06-2.93l31.07-39.37L95.7,195.65h51.46a6.29,6.29,0,0,1,5.28,2.86l39,59.78a7.72,7.72,0,0,0,6.41,3.51l21.41.17a3.42,3.42,0,0,0,3.1-4.92Z" transform="translate(-8.32 -4.38)"/><path class="cls-1" d="M89.4,43.23a30.59,30.59,0,0,1-1.21,30.88L65.51,109.87a3,3,0,0,0,.95,4.21l2.4,1.52a3.06,3.06,0,0,0,4.22-.94L95.76,78.9a39.47,39.47,0,0,0,1.57-39.84A39,39,0,0,0,64.18,18v9A30.09,30.09,0,0,1,89.4,43.23Z" transform="translate(-8.32 -4.38)"/><circle class="cls-1" cx="51.46" cy="122.4" r="4.96"/></svg>