<svg id="Capa_1" data-name="Capa 1" xmlns="http://www.w3.org/2000/svg" viewBox="0 0 547.09 211.73"><defs><style>.cls-1{fill:#f1836e;}</style></defs><title>actopan_nuberosa2</title><path class="cls-1" d="M-5.53,1707c-8.06-13.2-20.69-18.34-29.86-20.33-14.71-3.2-30.46-.49-37.63,4a39.59,39.59,0,0,1-20.36,16.06,32.46,32.46,0,0,1-10.69,1.82,32.62,32.62,0,0,1-30.78-21.84,26.54,26.54,0,0,1,4.57-25.74l5.08,4.16a20,20,0,0,0-3.45,19.41,26,26,0,0,0,33.11,16,33.08,33.08,0,0,0,19-17,33.08,33.08,0,0,0,1.45-25.45c-7.17-20.55-29.49-41.9-70.67-41.91a48.11,48.11,0,0,1-7.32,28.76,45.39,45.39,0,0,1-38.56,21.37,45,45,0,0,1-23.88-6.84,37.05,37.05,0,0,1-17.13-36l6.52.83A30.44,30.44,0,0,0-212,1653.89a38.8,38.8,0,0,0,53.39-12.42c6-9.65,16.43-35.62-16.38-68.34-18.93-18.87-61.27-33.72-105.56-25.58-28.28,5.2-66.45,21.6-89.53,69.89a40.15,40.15,0,0,1,24.85,27.64,33.89,33.89,0,0,1-3.35,25.9,33.93,33.93,0,0,1-20.69,16,28.21,28.21,0,0,1-7.29,1,28,28,0,0,1-27-20.67l6.34-1.72a21.24,21.24,0,0,0,10,13,21.17,21.17,0,0,0,16.23,2.1,27.38,27.38,0,0,0,16.71-12.87,27.37,27.37,0,0,0,2.71-20.92c-5.41-20-25.7-30-50.48-24.84-30.92,6.42-56.72,32.38-60,60.38l0,1.05a55,55,0,0,1,6.24,5.12l-4.54,4.75c-21.28-20.34-57.82-18.66-75.06-3.64a33.08,33.08,0,0,0-11.36,22.83,33.11,33.11,0,0,0,8.11,24.17,26,26,0,0,0,36.68,2.53,20,20,0,0,0,6.86-13.8,20,20,0,0,0-4.9-14.61l4.95-4.32a26.52,26.52,0,0,1,6.51,19.38,26.81,26.81,0,0,1-1.28,6.46h211.48a31.93,31.93,0,0,1-.66-26.39c.26-.64.55-1.27.86-1.9a28.87,28.87,0,0,1,16.69-14.77,28.88,28.88,0,0,1,22.24,1.35,23.81,23.81,0,0,1,12.15,13.73,23.79,23.79,0,0,1-1.12,18.3l-5.9-2.88a17.3,17.3,0,0,0,.81-13.28,17.22,17.22,0,0,0-8.82-10,22.58,22.58,0,0,0-30.15,10.38c-.25.52-.48,1-.7,1.56a25.6,25.6,0,0,0,2.09,23.86h.46v.73a27.44,27.44,0,0,0,22.8,12.19h.25l200.53-1.8a21.84,21.84,0,0,1,6.36-18.75l4.58,4.7a15.35,15.35,0,0,0-.26,21.67,20,20,0,0,0,28.24.34C1.94,1741.74,3.05,1721-5.53,1707Z" transform="translate(546.84 -1545.27)"/></svg>