<svg id="Capa_1" data-name="Capa 1" xmlns="http://www.w3.org/2000/svg" viewBox="0 0 379.1 171.74"><defs><style>.cls-1{fill:#f1836e;}</style></defs><title>actopan_nuberosa_contorno3</title><path class="cls-1" d="M1570.59,2121.85a39.16,39.16,0,0,0-7.73-35.4c-13.95-16.7-41.77-30.15-75.47-15.36-.24-11.78-6.69-23.92-18.86-34.52-19.72-17.17-59.13-18.37-91.69-2.77a93.29,93.29,0,0,0-52.4,79.64,70,70,0,0,0-24.24-4.93c-16-.45-30.88,4.26-40.8,12.9a39.7,39.7,0,0,0-3.86,56,32.38,32.38,0,0,0,44.72,3.95l274.77-.94a24.28,24.28,0,0,0,30,12.81,29.57,29.57,0,0,0,18.15-37.6C1617.64,2139.63,1600.92,2123,1570.59,2121.85Zm32.36,65.29a17.82,17.82,0,0,1-22.68-10.95,13.48,13.48,0,0,1,2.33-13.11l-5-4.09a19.89,19.89,0,0,0-4.4,15l-267,.91a26.56,26.56,0,0,0-2.32-31.8l-4.87,4.24a20.11,20.11,0,0,1-2,28.38,26,26,0,0,1-36.61-2.53,33.25,33.25,0,0,1,3.24-46.9c17.19-15,53.64-16.65,74.86,3.63l4.46-4.66a56.32,56.32,0,0,0-12.14-8.8,86.79,86.79,0,0,1,48.81-76.83c29.87-14.31,67.06-13.51,84.66,1.82,15.67,13.65,20.64,29.88,13.29,43.4a24.73,24.73,0,0,1-33.52,9.91,19.19,19.19,0,0,1-10-18.1l-6.45-.44a25.69,25.69,0,0,0,13.31,24.21,31.17,31.17,0,0,0,42.28-12.5,34.33,34.33,0,0,0,3.48-9.4c31.93-15.69,58.25-3.4,71.18,12.07a32.69,32.69,0,0,1,5.92,31.25h-.26l0,.69a32.51,32.51,0,0,1-9.8,14.16,25.58,25.58,0,0,1-36-3.22,19.67,19.67,0,0,1-3.56-19l-6.11-2.07a26.08,26.08,0,0,0,4.72,25.26,32,32,0,0,0,45.07,4,39,39,0,0,0,10.33-13.41c28.47.37,43.89,15.22,48.88,29.51A23.09,23.09,0,0,1,1603,2187.14Z" transform="translate(-1245.77 -2022.85)"/></svg>