<svg id="Capa_1" data-name="Capa 1" xmlns="http://www.w3.org/2000/svg" viewBox="0 0 929.9 373.53"><defs><style>.cls-1{fill:#ffd980;}.cls-2{fill:#eb9d33;stroke:#eb9d33;stroke-miterlimit:10;stroke-width:0.5px;}</style></defs><title>actopan_nube04</title><path class="cls-1" d="M871.83,258.07c-24.4-5.3-50.53-.8-62.42,6.68a65.77,65.77,0,0,1-33.77,26.63,54,54,0,0,1-68.8-33.2,44.06,44.06,0,0,1,7.58-42.71l8.43,6.91a33.2,33.2,0,0,0-5.71,32.2,43.1,43.1,0,0,0,54.91,26.51,55.33,55.33,0,0,0,34-70.38c-11.9-34.09-48.92-69.51-117.25-69.51a79.73,79.73,0,0,1-12.13,47.7A75.24,75.24,0,0,1,573.07,213a61.46,61.46,0,0,1-28.42-59.72l10.82,1.37a50.52,50.52,0,0,0,23.35,49.1,64.37,64.37,0,0,0,88.57-20.61c10-16,27.25-59.09-27.17-113.36-31.4-31.31-101.62-56-175.12-42.44C418.2,36,354.88,63.18,316.59,143.28c20.34,7.9,35.27,23.79,41.23,45.85a56.68,56.68,0,0,1-39.89,69.42,46.36,46.36,0,0,1-56.87-32.67L271.58,223a35.49,35.49,0,0,0,43.51,25A45.77,45.77,0,0,0,347.3,192c-9-33.19-42.63-49.75-83.74-41.21-48.87,10.15-93.12,55.16-100.3,101.31a92.58,92.58,0,0,1,11.17,9.1L166.9,269C131.6,235.31,71,238.1,42.38,263A55.26,55.26,0,0,0,37,341a43.18,43.18,0,0,0,60.84,4.2A33.45,33.45,0,0,0,101.09,298l8.22-7.15A44.27,44.27,0,0,1,118,333.73H468.79A52.92,52.92,0,0,1,467.7,290c.44-1.06.91-2.11,1.43-3.16a48.3,48.3,0,0,1,64.58-22.25A39.78,39.78,0,0,1,552,317.68l-9.8-4.78a28.86,28.86,0,0,0-13.28-38.55,37.44,37.44,0,0,0-50,17.23q-.62,1.28-1.17,2.58a42.48,42.48,0,0,0,3.47,39.57H482V335a45.53,45.53,0,0,0,37.84,20.22h.41l332.63-3a36.93,36.93,0,0,1-.4-5.58,36,36,0,0,1,11-25.54l7.61,7.8a25.41,25.41,0,0,0-.45,35.94,32.94,32.94,0,0,0,23.31,10,32.54,32.54,0,0,0,23.55-9.42c16.31-15.91,18.15-50.3,3.93-73.58C908,269.91,887.05,261.38,871.83,258.07Z" transform="translate(-12.26 -12.43)"/><path class="cls-2" d="M874.15,247.42c-21-4.56-42.37-2.54-57.55,2.34a65.86,65.86,0,0,0-.28-42.64c-13.22-37.9-54-77.25-128.88-76.82-4.28-22.89-17.61-46.38-39.52-68.23-18.19-18.14-46.08-32.82-78.52-41.33a246,246,0,0,0-106.26-4.11c-49.71,9.13-116.89,38.05-157,123.39-13.4-3.17-28.58-3.28-44.75.07-51.44,10.69-98.17,57.19-108,105.93a113.58,113.58,0,0,0-50.1-12.74c-26.64-.71-51.44,7.11-68,21.51a66.16,66.16,0,0,0-6.44,93.34A54.08,54.08,0,0,0,105,353.39a43.87,43.87,0,0,0,7.65-8.76h363a56.3,56.3,0,0,0,44.22,21.44h.5l335.86-3a36.49,36.49,0,0,0,6.6,9.37,43.78,43.78,0,0,0,31,13.28h.55a43.76,43.76,0,0,0,30.74-12.51c17.79-17.37,24.3-56.5,5.62-87.08C918.49,266.19,899,252.81,874.15,247.42Zm43.29,118a32.54,32.54,0,0,1-23.55,9.42,32.94,32.94,0,0,1-23.31-10,25.41,25.41,0,0,1,.45-35.94l-7.61-7.8a36,36,0,0,0-11,25.54,36.93,36.93,0,0,0,.4,5.58l-332.63,3h-.41A45.53,45.53,0,0,1,482,335v-1.22h-.76a42.48,42.48,0,0,1-3.47-39.57q.56-1.31,1.17-2.58a37.44,37.44,0,0,1,50-17.23,28.86,28.86,0,0,1,13.28,38.55l9.8,4.78a39.78,39.78,0,0,0-18.3-53.13,48.3,48.3,0,0,0-64.58,22.25c-.52,1.05-1,2.1-1.43,3.16a52.92,52.92,0,0,0,1.09,43.77H118a44.27,44.27,0,0,0-8.64-42.85L101.09,298a33.45,33.45,0,0,1-3.25,47.14A43.18,43.18,0,0,1,37,341a55.26,55.26,0,0,1,5.38-78c28.6-24.9,89.22-27.69,124.52,6l7.53-7.87a92.58,92.58,0,0,0-11.17-9.1c7.18-46.15,51.43-91.16,100.3-101.31,41.11-8.54,74.77,8,83.74,41.21A45.77,45.77,0,0,1,315.09,248a35.49,35.49,0,0,1-43.51-25l-10.52,2.85a46.36,46.36,0,0,0,56.87,32.67,56.68,56.68,0,0,0,39.89-69.42c-6-22.06-20.89-37.95-41.23-45.85C354.88,63.18,418.2,36,465.1,27.35c73.5-13.52,143.72,11.13,175.12,42.44,54.42,54.27,37.13,97.35,27.17,113.36a64.37,64.37,0,0,1-88.57,20.61,50.52,50.52,0,0,1-23.35-49.1l-10.82-1.37A61.46,61.46,0,0,0,573.07,213,75.24,75.24,0,0,0,676.65,188.9a79.73,79.73,0,0,0,12.13-47.7c68.33,0,105.35,35.42,117.25,69.51a55.33,55.33,0,0,1-34,70.38,43.1,43.1,0,0,1-54.91-26.51,33.2,33.2,0,0,1,5.71-32.2l-8.43-6.91a44.06,44.06,0,0,0-7.58,42.71,53.9,53.9,0,0,0,68.8,33.2,65.77,65.77,0,0,0,33.77-26.63c11.89-7.48,38-12,62.42-6.68,15.22,3.31,36.16,11.84,49.54,33.74C935.59,315.09,933.75,349.48,917.44,365.39Z" transform="translate(-12.26 -12.43)"/></svg>