<svg id="Capa_1" data-name="Capa 1" xmlns="http://www.w3.org/2000/svg" viewBox="0 0 639.55 285.5"><defs><style>.cls-1{fill:#ea3056;}.cls-2{fill:#ffd980;}</style></defs><title>actopan_nube01</title><path class="cls-1" d="M595.85,288.84A34.07,34.07,0,0,1,563.69,266a26.63,26.63,0,0,1,2.47-22.92l-2.9-2.38a30.21,30.21,0,0,0-4.56,19.89l.47,4.06L92.64,266.25l3.64-5.64a41.71,41.71,0,0,0-1.38-47.05L92.09,216a38,38,0,0,1-6,50.72,48,48,0,0,1-67.63-4.67,60.36,60.36,0,0,1,5.88-85.18c14.87-13,37.36-20.39,61.72-20.39,26.39,0,50.48,8.58,68.26,24.23l2.57-2.69a94.91,94.91,0,0,0-17.25-12L137.75,165l0-2.21c.74-57.13,34.25-109.87,85.38-134.35a184.82,184.82,0,0,1,78.21-17.81c29.41,0,54.36,7.62,70.24,21.46,28.13,24.5,36.91,53.86,23.48,78.55a45.52,45.52,0,0,1-27.26,22.06A45.7,45.7,0,0,1,332.93,129,36.42,36.42,0,0,1,314,98.33l-3.73-.26a40.19,40.19,0,0,0,20.9,34.21,49.53,49.53,0,0,0,67.19-19.86,54.85,54.85,0,0,0,5.58-15l.37-1.74,1.59-.79C423.18,86.35,440.56,82,457.56,82c28.5,0,56.24,12.83,74.21,34.33a59.19,59.19,0,0,1,10.77,56.81l-.78,2.39h-.06a59.32,59.32,0,0,1-17.43,24.63,47.27,47.27,0,0,1-66.54-6,37.14,37.14,0,0,1-7.74-32.5l-3.54-1.2a40.85,40.85,0,0,0,8.43,36.09,51,51,0,0,0,71.78,6.42,62.54,62.54,0,0,0,16.65-21.63l1-2.13,2.36,0c50.65.66,78.05,27.72,86.81,52.81A43.05,43.05,0,0,1,607,286.93a33.74,33.74,0,0,1-11.19,1.91Z" transform="translate(0 -6.99)"/><path class="cls-2" d="M301.36,14.28c27.37,0,52.17,6.9,67.85,20.56,26.74,23.3,35.22,51,22.67,74.06a41.89,41.89,0,0,1-25.1,20.3,41.95,41.95,0,0,1-32.11-3.39,32.78,32.78,0,0,1-17-30.89l-11-.74a43.83,43.83,0,0,0,22.71,41.31A52.92,52.92,0,0,0,354.75,142a53.55,53.55,0,0,0,15.15-2.2,52.85,52.85,0,0,0,31.66-25.61,58.82,58.82,0,0,0,5.95-16c17.87-8.78,34.71-12.43,50.06-12.43a93.35,93.35,0,0,1,71.4,33,55.83,55.83,0,0,1,10.11,53.34h-.45l0,1.18a55.34,55.34,0,0,1-16.74,24.17,43.63,43.63,0,0,1-61.4-5.49,33.58,33.58,0,0,1-6.08-32.51L444,155.89a44.54,44.54,0,0,0,8.06,43.1A54.53,54.53,0,0,0,494,218.55h0a54.34,54.34,0,0,0,35-12.69A66.42,66.42,0,0,0,546.62,183c48.58.63,74.9,26,83.42,50.36a39.41,39.41,0,0,1-24.21,50.14,30.37,30.37,0,0,1-38.7-18.69,23.06,23.06,0,0,1,4-22.37l-8.52-7A33.92,33.92,0,0,0,555.07,261L99.34,262.58a45.32,45.32,0,0,0-4-54.27l-8.3,7.24A34.33,34.33,0,0,1,83.73,264a44.33,44.33,0,0,1-62.48-4.31,56.72,56.72,0,0,1,5.52-80C41,167.2,63.06,160.14,86.09,160.14c24.35,0,49.83,7.9,68.44,25.69l7.61-8a96.58,96.58,0,0,0-20.72-15c.72-55.79,33.33-107.19,83.31-131.12a180.61,180.61,0,0,1,76.63-17.45m0-7.29a188.49,188.49,0,0,0-79.78,18.16c-52.37,25.08-86.7,79.09-87.45,137.6v.44a112.6,112.6,0,0,0-48-10.34c-25.22,0-48.59,7.75-64.11,21.28a64,64,0,0,0-6.23,90.33A51.62,51.62,0,0,0,88,269.91l11.36,0,455.73-1.56,5.54,0a37.66,37.66,0,0,0,47.6,22.08A46.72,46.72,0,0,0,636.93,231c-9.17-26.26-37.68-54.57-90.21-55.26h-1.15l.22-.68.23-.64v-.05A62.88,62.88,0,0,0,534.57,114c-18.66-22.32-47.45-35.64-77-35.64-17.42,0-35.19,4.36-52.84,13,1.84-20.86-8.8-42.91-30.73-62C357.45,14.93,331.65,7,301.36,7Z" transform="translate(0 -6.99)"/></svg>