<svg id="Capa_1" data-name="Capa 1" xmlns="http://www.w3.org/2000/svg" viewBox="0 0 1735.32 519.48"><defs><style>.cls-1{fill:#ea3056;}.cls-2{fill:#ffd980;}</style></defs><title>actopan_nube08</title><path class="cls-1" d="M1718.21,438.76a63,63,0,0,0-85.66,24l-.28-.15a47.34,47.34,0,0,1-26,18.35,47.94,47.94,0,0,1-13,1.79,47.44,47.44,0,0,1-23.29-6.13,39.12,39.12,0,0,1-14.93-53.21l7.92,4.45a30,30,0,0,0,11.45,40.84A38.64,38.64,0,0,0,1627,454a49.47,49.47,0,0,0-18.88-67.29,63,63,0,0,0-72.52,7.72,54.62,54.62,0,0,1-7,26.06A47.42,47.42,0,0,1,1499.89,443a47.51,47.51,0,0,1-36.26-4.34,39.08,39.08,0,0,1-14.92-53.21l7.91,4.45a30,30,0,0,0,11.46,40.84,38.69,38.69,0,0,0,52.6-14.76,47.52,47.52,0,0,0,3.71-8.44,45.61,45.61,0,0,0,2.18-17.1c-.94-15.62-9.7-31-25.18-42-17.17-12.21-49.73-15.7-81-8.69-13.74,3.08-25.62,7.84-34.57,13.64a53.47,53.47,0,0,1-5.07,12.73A47.38,47.38,0,0,1,1352,388.71a48,48,0,0,1-13,1.8,47.35,47.35,0,0,1-23.29-6.14,39.07,39.07,0,0,1-14.93-53.21l7.92,4.45a30,30,0,0,0,11.46,40.84,38.92,38.92,0,0,0,52.59-14.75,44.26,44.26,0,0,0,4.8-13.7c1.93-10.47.84-22.54-3.33-34.39-5.26-15-17.86-37-48-56.95-42.38-28.07-118.62-17.77-156.13.44A88.9,88.9,0,0,1,1165,268a77.27,77.27,0,0,1-105.15,29.5,62.7,62.7,0,0,1-23.95-85.36l7.92,4.45a53.6,53.6,0,0,0,20.48,73,68.21,68.21,0,0,0,91.07-23.17c.59-.94,1.16-1.89,1.71-2.86A81.5,81.5,0,0,0,1163,250.7c14.69-41.51-10.81-81.76-39.47-105.08C1073,104.5,964.92,117.68,925.42,148a84.25,84.25,0,0,1-9.82,40.7,78.66,78.66,0,0,1-46.51,38.83,79.56,79.56,0,0,1-23.71,3.64,78.67,78.67,0,0,1-36.63-9.07,64.43,64.43,0,0,1-34.36-60.24l9.07.46A55.35,55.35,0,0,0,813,214a70.07,70.07,0,0,0,94.59-29.57,78,78,0,0,0,8.75-33.92q.09-3.28-.12-6.75c-1.33-22.1-12.33-50-46.93-79.67C833,33,755.65,12.15,677.9,32.51,631.35,44.7,570.61,75.59,534.64,152.76c21.28,11.92,35.13,31.23,38,55.15a63.29,63.29,0,0,1-55.28,70.27,53,53,0,0,1-6.13.36,51.55,51.55,0,0,1-51.08-45.38l9-1.08a42.43,42.43,0,0,0,47.12,37.07A54.12,54.12,0,0,0,563.6,209c-2.73-22.89-16-38.25-32.73-47.74a84.63,84.63,0,0,0-8.15-4.05,106.66,106.66,0,0,0-36.36-8.34c-48-2.5-105.77,47.74-123.45,85.6a57.93,57.93,0,0,1,27.82,50.92A47.7,47.7,0,0,1,343.06,332h-1.14a39.07,39.07,0,0,1-38.15-40l9.08.22a30,30,0,0,0,29.28,30.68,38.63,38.63,0,0,0,39.52-37.71,48.83,48.83,0,0,0-22.15-42,50.71,50.71,0,0,0-8.06-4.34,52.45,52.45,0,0,0-18.15-4.18c-42.22-2-73.61,21-88.56,35C225,287.93,211.18,311.41,209.5,329c19,4,35.87,12.54,48.88,25l-6.28,6.56c-35.44-33.88-96.34-31.06-125.08-6a55.94,55.94,0,0,0-5.44,78.83,43.85,43.85,0,0,0,61.78,4.26,34.17,34.17,0,0,0,3.32-48.14l6.85-6a43.27,43.27,0,0,1-4.2,61,53,53,0,0,1-74.6-5.15,64.63,64.63,0,0,1-13.08-23.56c-43-1.17-66.25,20.59-73.54,41.5a32.49,32.49,0,0,0,20,41.34A25.08,25.08,0,0,0,80,483.19a19.24,19.24,0,0,0,.82-3.39v-1.32H81a19.06,19.06,0,0,0-4.28-13.74l7-5.76a28.05,28.05,0,0,1,6.35,19.55L547.22,481h.34a38,38,0,0,0,31.57-16.88,35.51,35.51,0,0,0,3.53-34c-.3-.72-.62-1.44-1-2.16A31.25,31.25,0,0,0,540,413.59a24,24,0,0,0-11.07,32.16l-8.17,4A33.14,33.14,0,0,1,536,405.42,40.34,40.34,0,0,1,589.85,424c.43.87.82,1.75,1.19,2.63a44.22,44.22,0,0,1-1.41,37.58H893.91a65.19,65.19,0,0,1,4.5-34.55c.54-1.3,1.13-2.6,1.75-3.88a59.06,59.06,0,0,1,79-27.21,48.16,48.16,0,0,1,22.18,64.38l-8.17-4a39.07,39.07,0,0,0-18-52.23,50,50,0,0,0-66.81,23c-.55,1.13-1.06,2.27-1.54,3.41-7.5,18-5.46,37.68,5.59,54.13a60.31,60.31,0,0,0,50.11,26.79H963l700.38-3.8a39,39,0,0,1,1.7-34.73L1673,480a30,30,0,0,0,.53,30.22h.7v1.12a29.76,29.76,0,0,0,10.22,9.5,38.69,38.69,0,0,0,52.6-14.76,49.44,49.44,0,0,0-18.88-67.29Z" transform="translate(-17.21 -15.36)"/><path class="cls-2" d="M1722.66,430.84a72.11,72.11,0,0,0-80.79,7,58.58,58.58,0,0,0-29.27-59.1,72.09,72.09,0,0,0-77.87,4.71c-2.89-16-12.59-31.41-28.07-42.41-19.46-13.82-54.1-17.8-88.27-10.14a125.92,125.92,0,0,0-30.74,10.89c1.88-28.89-14.73-65.18-56.32-92.73-42.84-28.38-115.4-20.69-157.5-3.41,8.87-36.61-7.19-76.64-44.62-107.1-25.43-20.69-67.49-30.58-115.44-27.11-35.55,2.57-68.53,12.39-89.18,26C920.8,109.93,904,82,875.17,57.24c-20.68-17.76-51.38-31.1-86.44-37.56a262.08,262.08,0,0,0-113.14,4c-48.46,12.69-111.67,44.81-149.09,125a114.23,114.23,0,0,0-39.66-8.94c-52-2.69-112.39,49.51-131.91,90.56a61.8,61.8,0,0,0-21.2-4.82c-45.61-2.18-79.19,22.49-95.19,37.38-21.33,19.86-35.86,44.72-38,64.61a120.88,120.88,0,0,0-12.43-1c-26.29-.71-50.74,7-67,21.18a65,65,0,0,0-21.49,58.95c-46.54-.4-71.81,24.07-80,47.63a41.59,41.59,0,0,0,25.54,52.91A34.12,34.12,0,0,0,88,487.6l459.16,2.5h.43a46.93,46.93,0,0,0,36-16.83H895.86a68.55,68.55,0,0,0,9,19.07,69.32,69.32,0,0,0,57.62,30.8h.63l705.8-3.84a38.7,38.7,0,0,0,11.14,9.43,47.74,47.74,0,0,0,65-18.23,58.49,58.49,0,0,0-22.34-79.66Zm14.43,75.21a38.69,38.69,0,0,1-52.6,14.76,29.76,29.76,0,0,1-10.22-9.5v-1.12h-.7A30,30,0,0,1,1673,480l-7.92-4.45a39,39,0,0,0-1.7,34.73L963,514.05h-.54a60.31,60.31,0,0,1-50.11-26.79c-11-16.45-13.09-36.17-5.59-54.13.48-1.14,1-2.28,1.54-3.41a50,50,0,0,1,66.81-23,39.07,39.07,0,0,1,18,52.23l8.17,4a48.16,48.16,0,0,0-22.18-64.38,59.06,59.06,0,0,0-79,27.21c-.62,1.28-1.21,2.58-1.75,3.88a65.19,65.19,0,0,0-4.5,34.55H589.63A44.22,44.22,0,0,0,591,426.61c-.37-.88-.76-1.76-1.19-2.63A40.34,40.34,0,0,0,536,405.42a33.14,33.14,0,0,0-15.26,44.32l8.17-4A24,24,0,0,1,540,413.59,31.25,31.25,0,0,1,581.69,428c.35.72.67,1.44,1,2.16a35.51,35.51,0,0,1-3.53,34A38,38,0,0,1,547.56,481h-.34L90.07,478.53A28.05,28.05,0,0,0,83.72,459l-7,5.76A19.06,19.06,0,0,1,81,478.48h-.19v1.32a19.24,19.24,0,0,1-.82,3.39A25.08,25.08,0,0,1,48.06,498.6a32.49,32.49,0,0,1-20-41.34c7.29-20.91,30.5-42.67,73.54-41.5a64.63,64.63,0,0,0,13.08,23.56,53,53,0,0,0,74.6,5.15,43.27,43.27,0,0,0,4.2-61l-6.85,6a34.17,34.17,0,0,1-3.32,48.14,43.85,43.85,0,0,1-61.78-4.26A55.94,55.94,0,0,1,127,354.53c28.74-25,89.64-27.84,125.08,6l6.28-6.56c-13-12.44-29.92-21-48.88-25,1.68-17.62,15.49-41.1,35.23-59.48,15-13.92,46.34-37,88.56-35a52.45,52.45,0,0,1,18.15,4.18,50.71,50.71,0,0,1,8.06,4.34,48.83,48.83,0,0,1,22.15,42,38.63,38.63,0,0,1-39.52,37.71,30,30,0,0,1-29.28-30.68l-9.08-.22a39.07,39.07,0,0,0,38.15,40h1.14a47.7,47.7,0,0,0,47.67-46.59,57.93,57.93,0,0,0-27.82-50.92c17.68-37.86,75.42-88.1,123.45-85.6a106.66,106.66,0,0,1,36.36,8.34,84.63,84.63,0,0,1,8.15,4.05c16.76,9.49,30,24.85,32.73,47.74a54.12,54.12,0,0,1-47.33,60.16,42.43,42.43,0,0,1-47.12-37.07l-9,1.08a51.55,51.55,0,0,0,51.08,45.38,53,53,0,0,0,6.13-.36,63.29,63.29,0,0,0,55.28-70.27c-2.85-23.92-16.7-43.23-38-55.15,36-77.17,96.71-108.06,143.26-120.25C755.65,12.15,833,33,869.25,64.13c34.6,29.72,45.6,57.57,46.93,79.67q.21,3.47.12,6.75a78,78,0,0,1-8.75,33.92A70.07,70.07,0,0,1,813,214a55.35,55.35,0,0,1-29.5-51.73l-9.07-.46a64.43,64.43,0,0,0,34.36,60.24,78.67,78.67,0,0,0,36.63,9.07,79.56,79.56,0,0,0,23.71-3.64,78.66,78.66,0,0,0,46.51-38.83,84.25,84.25,0,0,0,9.82-40.7c39.5-30.31,147.53-43.49,198.06-2.37,28.66,23.32,54.16,63.57,39.47,105.08a81.5,81.5,0,0,1-5.86,12.87c-.55,1-1.12,1.92-1.71,2.86a68.21,68.21,0,0,1-91.07,23.17,53.6,53.6,0,0,1-20.48-73l-7.92-4.45a62.7,62.7,0,0,0,23.95,85.36A77.27,77.27,0,0,0,1165,268a88.9,88.9,0,0,0,5.18-10.92c37.51-18.21,113.75-28.51,156.13-.44,30.11,19.94,42.71,42,48,56.95,4.17,11.85,5.26,23.92,3.33,34.39a44.26,44.26,0,0,1-4.8,13.7,38.61,38.61,0,0,1-52.59,14.75,30,30,0,0,1-11.46-40.84l-7.92-4.45a39.07,39.07,0,0,0,14.93,53.21,47.35,47.35,0,0,0,23.29,6.14,48,48,0,0,0,13-1.8,47.38,47.38,0,0,0,28.71-22.56,53.47,53.47,0,0,0,5.07-12.73c9-5.8,20.83-10.56,34.57-13.64,31.28-7,63.84-3.52,81,8.69,15.48,11,24.24,26.38,25.18,42a45.61,45.61,0,0,1-2.18,17.1,47.52,47.52,0,0,1-3.71,8.44,38.69,38.69,0,0,1-52.6,14.76,30,30,0,0,1-11.46-40.84l-7.91-4.45a39.08,39.08,0,0,0,14.92,53.21,47.72,47.72,0,0,0,65-18.23,54.62,54.62,0,0,0,7-26.06,63,63,0,0,1,72.52-7.72A49.47,49.47,0,0,1,1627,454a38.64,38.64,0,0,1-52.6,14.76A30,30,0,0,1,1563,427.89l-7.92-4.45A39.12,39.12,0,0,0,1570,476.65a47.44,47.44,0,0,0,23.29,6.13,47.94,47.94,0,0,0,13-1.79,47.34,47.34,0,0,0,26-18.35l.28.15a63,63,0,0,1,85.66-24,49.44,49.44,0,0,1,18.88,67.29Z" transform="translate(-17.21 -15.36)"/></svg>