<?xml version="1.0" encoding="utf-8"?>
<!-- Generator: Adobe Illustrator 23.0.6, SVG Export Plug-In . SVG Version: 6.00 Build 0)  -->
<svg version="1.1" id="Capa_1" xmlns="http://www.w3.org/2000/svg" xmlns:xlink="http://www.w3.org/1999/xlink" x="0px" y="0px"
	 viewBox="0 0 293.4 293.4" style="enable-background:new 0 0 293.4 293.4;" xml:space="preserve">
<style type="text/css">
	.st0{opacity:0.75;}
	.st1{fill:#FFFFFF;}
	.st2{fill:#EA3056;}
</style>
<title>actopan_down</title>
<g class="st0">
	<path class="st1" d="M200.9,240.7c0,5.3-4.3,9.5-9.5,9.5c-5.3,0-9.5-4.3-9.5-9.5c0-17.9,14.6-32.4,32.4-32.4h75.6V39
		c0-21.5-17.5-39-39-39H39C17.5,0,0,17.5,0,39v169.3h75.6c17.9,0,32.4,14.5,32.4,32.4c0,5.3-4.3,9.5-9.5,9.5c-5.3,0-9.5-4.3-9.5-9.5
		c0-7.4-6-13.4-13.4-13.4H0v23.6c0,21.5,17.5,39,39,39h211.9c21.5,0,39-17.5,39-39v-23.6h-75.6C206.9,227.3,200.9,233.3,200.9,240.7
		z"/>
</g>
<g>
	<path class="st2" d="M162.6,108.4l65.9-48.6c4.2-3.1,5.1-9.1,2-13.3c-3.1-4.2-9.1-5.1-13.3-2l-66.1,48.7
		C157.7,95.4,162.5,101.2,162.6,108.4z"/>
	<path class="st2" d="M127.1,112.3L61.2,161c-4.2,3.1-5.1,9.1-2,13.3c1.9,2.5,4.7,3.9,7.7,3.9c2,0,3.9-0.6,5.6-1.9l66.1-48.7
		C132,125.4,127.3,119.5,127.1,112.3z"/>
	<path class="st2" d="M138.6,93.3L74.3,48.6c-4.3-3-10.3-1.9-13.2,2.4c-3,4.3-2,10.2,2.4,13.2l64,44.5
		C127.4,101.5,132.1,95.6,138.6,93.3z"/>
	<path class="st2" d="M162.3,111.8c0,0.1,0,0.1,0,0.2c0,7.1-4.6,13.1-10.9,15.4l62.9,43.8c1.7,1.2,3.6,1.7,5.4,1.7
		c3,0,6-1.4,7.8-4.1c3-4.3,2-10.2-2.4-13.2L162.3,111.8z"/>
</g>
</svg>
