<svg id="Capa_1" data-name="Capa 1" xmlns="http://www.w3.org/2000/svg" viewBox="0 0 933.96 370.53"><defs><style>.cls-1{fill:#ea3056;}.cls-2{fill:#ffd980;}</style></defs><title>actopan_nube03</title><path class="cls-1" d="M899.15,380.36a36.92,36.92,0,0,1-26.68-11.23,29.49,29.49,0,0,1-2-38.88L868,327.64a33.31,33.31,0,0,0-7.09,25.61l.59,4.18-341.12,3.05a50,50,0,0,1-41.53-21.71h0l-.88-1.34v-.06l-.21-.33a46.79,46.79,0,0,1-3.79-43.48c.4-.95.82-1.88,1.27-2.8a41.89,41.89,0,0,1,37.45-23.37,41.18,41.18,0,0,1,18.15,4.2,32.92,32.92,0,0,1,16.61,40.58l3.26,1.59a36.53,36.53,0,0,0-18.27-45.42,45.21,45.21,0,0,0-60.45,20.82c-.49,1-.94,2-1.36,3a49.9,49.9,0,0,0,1,41.28l2.54,5.31H107.87l1.58-4.85a41.66,41.66,0,0,0,2-10A40.89,40.89,0,0,0,103.71,297L101,299.39a37.56,37.56,0,0,1-6,50.05,47.44,47.44,0,0,1-66.85-4.61A59.68,59.68,0,0,1,34,260.64c14.7-12.8,36.93-20.14,61-20.14,26,0,49.8,8.45,67.37,23.87l2.5-2.61a92.15,92.15,0,0,0-7.33-5.76L156,254.92l-.09-3.62c5.7-49.07,50.29-94.05,103.73-105.16a107.59,107.59,0,0,1,21.87-2.33c33.7,0,59.48,17.91,67.26,46.73a50,50,0,0,1-35.23,61.31,39.66,39.66,0,0,1-47.48-24.38l-3.5.94a43.37,43.37,0,0,0,40.65,28.44,42.86,42.86,0,0,0,11.27-1.5,53.61,53.61,0,0,0,37.79-65.75,64.05,64.05,0,0,0-39.51-43.95L309,144.2l1.72-3.61C350.31,57.85,415.83,30,463.84,21.15a238.58,238.58,0,0,1,43-3.89c54.44,0,108.47,18.8,137.64,47.88,57,56.86,38.6,102.43,28,119.39a68.88,68.88,0,0,1-94.81,22.06A54.91,54.91,0,0,1,552,157l-3.6-.45a58.52,58.52,0,0,0,27.41,53.16,72.47,72.47,0,0,0,99.78-23.22,76.86,76.86,0,0,0,11.74-46.12l-.24-3.93H691C762.4,136.4,801,174,813.25,209.26a59.67,59.67,0,0,1-36.68,76,47.36,47.36,0,0,1-60.34-29.12,37.25,37.25,0,0,1,4.21-33.21l-2.81-2.3a40.86,40.86,0,0,0-4.82,36.69A51.08,51.08,0,0,0,761,291.53a50.46,50.46,0,0,0,16.74-2.85,62.5,62.5,0,0,0,32.3-25.47l.45-.71.69-.43c9.48-6,25.86-9.67,42.74-9.67a110.21,110.21,0,0,1,23.24,2.42c16.12,3.5,38.32,12.57,52.54,35.85,15.23,24.92,13.11,61.9-4.54,79.12a37.06,37.06,0,0,1-26,10.57Z" transform="translate(-9.79 -13.55)"/><path class="cls-2" d="M506.82,21c58,0,109.34,21.2,135,46.81,55.12,55,37.61,98.59,27.52,114.8a65.15,65.15,0,0,1-89.69,20.87A51.15,51.15,0,0,1,556,153.72l-11-1.38a62.24,62.24,0,0,0,28.77,60.47,76.22,76.22,0,0,0,104.9-24.41A80.75,80.75,0,0,0,691,140.09c69.18,0,106.68,35.87,118.73,70.4a56,56,0,0,1-34.41,71.27,43.65,43.65,0,0,1-55.61-26.85,33.6,33.6,0,0,1,5.79-32.61l-8.54-7a44.59,44.59,0,0,0-7.67,43.24A54.68,54.68,0,0,0,779,292.18a66.39,66.39,0,0,0,34.19-27c8.4-5.29,23.82-9.1,40.77-9.1a106.56,106.56,0,0,1,22.45,2.33c15.4,3.35,36.61,12,50.16,34.17,14.41,23.57,12.55,58.4-4,74.52a33.6,33.6,0,0,1-47.45-.58,25.77,25.77,0,0,1,.45-36.4l-7.71-7.9a36.69,36.69,0,0,0-10.67,31.51l-336.87,3h-.41A46.11,46.11,0,0,1,481.6,336.3v-1.23h-.78A43,43,0,0,1,477.31,295c.37-.88.77-1.75,1.19-2.61a37.87,37.87,0,0,1,50.64-17.45,29.2,29.2,0,0,1,13.45,39l9.92,4.84A40.23,40.23,0,0,0,534,265a48.91,48.91,0,0,0-65.4,22.53c-.52,1.06-1,2.13-1.45,3.2a53.61,53.61,0,0,0,1.11,44.33H113a45.28,45.28,0,0,0,2.15-10.85,44.57,44.57,0,0,0-10.93-32.55l-8.32,7.25a33.84,33.84,0,0,1-3.3,47.73A43.74,43.74,0,0,1,31,342.4a56,56,0,0,1,5.45-79C50.5,251.18,72.24,244.21,95,244.21c24,0,49.18,7.79,67.55,25.35l7.63-8A92.44,92.44,0,0,0,159.67,253l0-1.76c5.51-47,48.84-90.64,100.78-101.44a104.45,104.45,0,0,1,21.11-2.25c31.71,0,56.2,16.27,63.69,44a46.28,46.28,0,0,1-32.61,56.77,36.29,36.29,0,0,1-9.44,1.26A36,36,0,0,1,268.53,223l-10.66,2.88a47.05,47.05,0,0,0,45.35,34.72h0a46.67,46.67,0,0,0,12.24-1.63,57.33,57.33,0,0,0,40.39-70.3c-6-22.34-21.15-38.43-41.75-46.43C352.88,61.08,417,33.52,464.51,24.8A234.09,234.09,0,0,1,506.82,21m0-7.41a242.46,242.46,0,0,0-43.65,3.95c-48.86,9-115.53,37.34-155.75,121.5l-2,4.25a88.72,88.72,0,0,0-23.86-3.15,111.43,111.43,0,0,0-22.63,2.41C204,153.92,158.11,200.28,152.26,250.35l-.07.52,0,.53,0,.9c-16.34-10.09-36.08-15.51-57.25-15.51-25,0-48.07,7.67-63.43,21.06a63.37,63.37,0,0,0-6.17,89.42,51.14,51.14,0,0,0,72.07,5,41.11,41.11,0,0,0,8.23-9.76H476.89a53.51,53.51,0,0,0,43,21.72h.56l336.79-3,5.6-.05a32.93,32.93,0,0,0,6.95,10.6,41,41,0,0,0,57.94.71c19.11-18.64,21.46-57,5.13-83.7C918,264.33,894.78,254.85,878,251.2a113,113,0,0,0-24-2.51c-15,0-29.66,2.86-39.87,7.62A62.94,62.94,0,0,0,816.75,208C804,171.62,764.34,132.69,691,132.67h-4.14c-2.85-20.07-13.57-44-39.8-70.15-29.83-29.75-84.89-49-140.26-49Z" transform="translate(-9.79 -13.55)"/></svg>